<?xml version="1.0" encoding="utf-8"?>
<!-- Generator: Adobe Illustrator 16.0.0, SVG Export Plug-In . SVG Version: 6.00 Build 0)  -->
<!DOCTYPE svg PUBLIC "-//W3C//DTD SVG 1.1//EN" "http://www.w3.org/Graphics/SVG/1.1/DTD/svg11.dtd">
<svg version="1.1" xmlns="http://www.w3.org/2000/svg" xmlns:xlink="http://www.w3.org/1999/xlink" x="0px" y="0px" width="537.5px"
	 height="155.5px" viewBox="-25.954 -4.344 537.5 155.5" enable-background="new -25.954 -4.344 537.5 155.5" xml:space="preserve">
<g id="Calque_1">
	<g>
		<path fill="#201E21" stroke="#000000" stroke-width="3" stroke-miterlimit="10" d="M-5.778,59.363
			c-2.362,1.125-4.531,1.265-6.498,0.421c-1.969-0.844-3.795-2.051-5.483-3.627c-3.601-3.375-4.892-7.256-3.881-11.643
			c0.45-1.798,1.099-3.516,1.943-5.146c0.843-1.629,1.883-3.177,3.122-4.64c3.375-3.375,7.311-6.355,11.813-8.943
			c6.186-3.375,12.625-6.13,19.321-8.268c6.691-2.137,13.583-3.993,20.67-5.569c4.725-0.899,9.475-1.743,14.258-2.531
			c4.779-0.786,9.533-1.35,14.257-1.687c1.912-0.225,3.57-0.563,4.977-1.013c1.406-0.448,2.618-1.292,3.629-2.532
			c0.338-0.336,0.731-0.589,1.181-0.759c0.448-0.168,0.786-0.363,1.012-0.59c0.112,0.113,0.338,0.168,0.674,0.168h0.337l0.844,3.713
			c0.786,0.113,1.46,0.168,2.025,0.168c0.562,0,1.124,0,1.688,0l38.303,2.362c1.912,0.227,3.823,0.507,5.736,0.845
			c1.912,0.336,3.824,0.956,5.736,1.855c0.786,0.452,1.519,0.928,2.194,1.433c0.674,0.507,1.012,1.21,1.012,2.11
			c0.11,1.463-1.126,2.531-3.712,3.207c-1.577,0.336-3.15,0.648-4.725,0.928c-1.577,0.282-3.266,0.028-5.062-0.76
			c-0.902-0.448-1.857-0.645-2.869-0.59c-1.012,0.057-2.083-0.026-3.206-0.252c-2.814-0.225-6.133-0.422-9.957-0.59
			c-3.826-0.169-7.792-0.309-11.896-0.422c-4.106-0.111-8.129-0.196-12.065-0.254c-3.938-0.055-7.313-0.084-10.124-0.084
			c-3.037,3.713-5.737,7.622-8.099,11.728c-2.363,4.108-4.838,8.128-7.424,12.064c-2.476,3.94-4.979,7.876-7.51,11.812
			c-2.531,3.939-4.867,7.875-7.002,11.812c0.448,0.901,1.011,1.324,1.687,1.265c0.675-0.057,1.292-0.084,1.856-0.084
			c3.599,0,7.143,0.058,10.63,0.168c3.486,0.114,6.973,0.506,10.462,1.18c1.012,0.228,1.995,0.423,2.954,0.591
			c0.954,0.169,1.826,0.367,2.614,0.59c1.013,0.337,1.687,0.872,2.025,1.603c0.337,0.733,0.393,1.548,0.17,2.446
			c-0.903,1.462-1.914,2.588-3.037,3.374c-1.125,0.788-2.531,1.182-4.218,1.182c-1.35,0-2.7-0.111-4.05-0.337
			c-1.351-0.225-2.757-0.393-4.218-0.507c-2.813-0.338-5.598-0.614-8.353-0.844c-2.758-0.223-5.598-0.506-8.521-0.843h-5.906
			c-1.577,3.037-3.18,6.047-4.81,9.026c-1.632,2.981-3.178,6.048-4.639,9.195c-2.139,4.725-4.249,9.507-6.329,14.342
			c-2.084,4.839-4.133,9.676-6.158,14.512c-1.126,2.362-2.169,4.75-3.123,7.172c-0.957,2.417-1.941,4.863-2.952,7.34
			c-0.451,0.674-0.929,1.405-1.435,2.193c-0.506,0.786-1.041,1.461-1.602,2.023c-0.338,0.449-0.874,0.702-1.602,0.762
			c-0.732,0.055-1.378-0.03-1.942-0.254c-0.338-0.337-0.705-0.732-1.098-1.182c-0.395-0.451-0.647-0.902-0.761-1.35
			c0.224-1.239,0.366-2.476,0.422-3.712c0.056-1.24,0.253-2.477,0.59-3.713c1.237-3.601,2.417-7.197,3.544-10.799
			c1.123-3.6,2.304-7.197,3.543-10.799c2.024-5.287,4.075-10.433,6.158-15.438c2.082-5.005,4.472-9.981,7.171-14.934
			c0.225-0.562,0.393-1.097,0.508-1.603c0.11-0.507,0.278-1.039,0.505-1.603c-0.565-0.786-1.238-1.181-2.024-1.181
			c-0.788,0-1.463,0.057-2.026,0.168c-9.339,0.902-18.28,2.477-26.828,4.725c-0.674,0.227-1.462,0.507-2.362,0.844
			c-0.902,0.337-1.914,0.282-3.037-0.169c0.222-0.338,0.393-0.675,0.506-1.012c0.112-0.337,0.279-0.563,0.508-0.676
			c1.91-0.897,3.821-1.743,5.735-2.531c1.912-0.786,3.936-1.519,6.074-2.193c4.16-1.235,8.292-2.304,12.403-3.205
			c4.105-0.9,8.408-1.63,12.908-2.194c0.223-0.109,0.562-0.224,1.011-0.337c0.448-0.111,1.012-0.225,1.687-0.338
			c0.563-1.124,1.153-2.277,1.772-3.458c0.615-1.181,1.319-2.334,2.107-3.46c0.563-1.35,1.238-2.641,2.026-3.88
			c0.786-1.237,1.517-2.474,2.192-3.713c0.675-1.236,1.405-2.389,2.194-3.459c0.786-1.068,1.574-2.219,2.362-3.458
			c0.786-1.237,1.546-2.446,2.278-3.627c0.73-1.183,1.547-2.389,2.447-3.629c0.899-1.124,1.743-2.219,2.531-3.29
			c0.786-1.068,1.573-2.164,2.364-3.291c0.898-1.124,1.826-2.219,2.782-3.291c0.956-1.068,1.882-2.219,2.783-3.459
			c0.899-1.013,1.797-2.051,2.7-3.123c0.898-1.068,1.687-2.277,2.362-3.627c-0.565-0.11-1.013-0.196-1.352-0.253
			c-0.337-0.056-0.618-0.084-0.843-0.084c-10.014,0.902-19.772,2.362-29.276,4.388c-9.508,2.024-18.589,5.343-27.252,9.955
			c-1.914,0.901-3.712,1.941-5.399,3.123c-1.688,1.181-3.319,2.505-4.893,3.965c-0.451,0.565-0.957,1.126-1.519,1.688
			c-0.564,0.564-1.011,1.126-1.35,1.687c-1.914,2.7-2.532,5.289-1.856,7.762c0.675,2.475,2.531,4.614,5.568,6.412
			c0.899,0.565,1.827,1.042,2.784,1.435C-7.439,58.66-6.566,59.025-5.778,59.363z"/>
		<path fill="#201E21" stroke="#000000" stroke-width="3" stroke-miterlimit="10" d="M86.188,90.352l-2.146-0.429
			c-2.098-0.476-3.669-1.881-4.719-4.218c-1.048-2.335-1.334-5.077-0.857-8.224c0.571-4.193,2.002-7.436,4.29-9.724
			c1.905-1.906,3.432-2.002,4.575-0.286c1.334,1.716,1.717,4.004,1.145,6.864c-0.382,1.43-0.882,3.242-1.501,5.434
			c-0.621,2.194-1.168,3.957-1.646,5.291c0.286,0.668,0.572,0.954,0.858,0.858c0.286-0.094,0.572-0.237,0.857-0.429
			c1.62-1.62,3.025-3.384,4.219-5.291c1.19-1.906,2.691-3.525,4.504-4.862c0.762-0.572,1.477-0.644,2.145-0.214
			c0.666,0.429,1.191,1.215,1.573,2.358c0.476,1.622,0.715,3.195,0.715,4.72c0,1.525-0.382,3.052-1.144,4.576
			c-1.526,1.05-2.837,2.408-3.933,4.075c-1.097,1.669-1.931,3.457-2.503,5.362c-0.571,1.908-0.906,3.79-1.001,5.648
			c-0.096,1.858,0.095,3.503,0.572,4.934c0.286,1.524,0.905,2.217,1.859,2.074c0.951-0.144,2.121-0.765,3.503-1.859
			c1.381-1.095,2.859-2.574,4.433-4.433c1.573-1.859,3.122-3.766,4.647-5.72c1.523-1.953,2.906-3.813,4.146-5.577
			c1.238-1.764,2.239-3.168,3.003-4.219c0.286-0.38,0.595-0.88,0.931-1.501c0.333-0.618,0.88-0.736,1.645-0.356
			c-0.192,0.572-0.382,1.122-0.572,1.645c-0.191,0.525-0.382,1.025-0.571,1.501c-1.431,2.86-2.718,5.341-3.861,7.437
			c-1.145,2.098-2.288,4.028-3.433,5.792c-1.144,1.765-2.431,3.432-3.86,5.005c-1.429,1.573-3.195,3.264-5.291,5.077
			c-0.764,0.666-1.573,1.262-2.431,1.787c-0.858,0.522-1.717,0.88-2.574,1.072c-1.431,0.381-2.788,0.262-4.075-0.356
			c-1.287-0.621-2.36-1.598-3.218-2.932c-0.858-1.337-1.479-2.98-1.859-4.935c-0.382-1.953-0.429-4.026-0.143-6.22
			c0.189-1.62,0.451-3.218,0.787-4.791C85.592,93.712,85.901,92.068,86.188,90.352z"/>
		<path fill="#201E21" stroke="#000000" stroke-width="3" stroke-miterlimit="10" d="M127.37,107.655
			c0.572,0,1.096,0.047,1.573,0.143c0.476,0.094,0.905,0,1.287-0.286c1.334-1.144,2.739-2.478,4.218-4.004
			c1.478-1.523,2.933-3.146,4.361-4.862c1.43-1.716,2.789-3.383,4.076-5.005c1.287-1.62,2.454-3.05,3.503-4.29
			c0.286-0.38,0.594-0.689,0.93-0.93c0.333-0.237,0.645-0.451,0.93-0.644c0.477,0.857,0.644,1.598,0.5,2.217
			c-0.143,0.621-0.357,1.168-0.644,1.645c-1.145,1.716-2.409,3.6-3.79,5.648c-1.383,2.051-2.838,4.075-4.362,6.077
			c-1.525,2.002-3.124,3.836-4.791,5.506c-1.669,1.667-3.267,2.931-4.79,3.79c-3.432,1.81-6.103,0.476-8.008-4.004
			c-0.382-0.668-0.621-1.336-0.715-2.002l-0.715-1.001l-7.293,1.286c-2.86,0-4.956-0.809-6.292-2.431
			c-1.333-1.62-2.002-3.646-2.002-6.077c0-2.431,0.597-5.077,1.788-7.937c1.192-2.86,2.813-5.528,4.861-8.008
			c2.05-2.479,4.456-4.599,7.223-6.363c2.764-1.763,5.767-2.789,9.009-3.075c1.43,0,2.86,0.621,4.29,1.859
			c1.334,1.05,2.191,2.67,2.574,4.861c0.38,2.194,0.189,4.29-0.572,6.292c-0.382,0.954-0.907,1.431-1.573,1.431
			c-0.191,0.096-0.429-0.047-0.715-0.43c-0.286-0.38-0.525-0.762-0.715-1.144c-0.192-0.19-0.286-0.5-0.286-0.93
			s-0.049-0.833-0.143-1.216c-0.097-0.857-0.357-1.477-0.787-1.858c-0.43-0.38-0.883-0.572-1.358-0.572
			c-0.668,0.096-1.336,0.192-2.002,0.286c-0.668,0.096-1.287,0.335-1.859,0.715c-4.672,2.767-8.343,7.246-11.011,13.442
			c-0.191,0.478-0.356,1.024-0.5,1.645c-0.143,0.621-0.311,1.215-0.5,1.787c-0.191,0.668-0.143,1.313,0.144,1.931
			c0.285,0.621,0.618,0.836,1.001,0.645c1.81-0.666,3.55-1.43,5.219-2.288c1.667-0.858,3.168-2.382,4.505-4.576
			c1.048-1.716,2.192-3.097,3.432-4.146c0.763-0.763,1.597-1.191,2.502-1.287c0.905-0.094,1.788,0.096,2.646,0.572
			c0.476,0.285,0.809,0.857,1.001,1.716c0.188,0.857,0.094,1.572-0.286,2.145c-0.478,0.765-0.93,1.479-1.358,2.146
			c-0.429,0.668-0.883,1.383-1.358,2.145c-0.764,1.336-1.455,2.695-2.073,4.076C127.822,103.675,127.466,105.462,127.37,107.655z"/>
		<path fill="#201E21" stroke="#000000" stroke-width="3" stroke-miterlimit="10" d="M163.979,82.629l-6.006,7.007
			c-1.908,2.288-3.742,4.672-5.505,7.15c-1.766,2.479-3.218,5.434-4.361,8.866c-1.526,4.004-3.289,5.291-5.291,3.86
			c-1.716-1.144-2.049-3.812-1.001-8.008c1.336-4.766,2.909-9.295,4.719-13.585c1.811-4.29,3.955-8.245,6.436-11.869
			c0.951-1.333,2.002-2.002,3.146-2.002c1.048-0.094,1.811,0.5,2.288,1.788c0.476,1.287,0.523,2.789,0.143,4.504
			c-0.096,0.479-0.215,0.93-0.356,1.359c-0.144,0.429-0.312,0.882-0.5,1.357c0.666,0.479,1.119,0.479,1.358,0
			c0.236-0.476,0.547-0.857,0.929-1.144c1.523-1.334,3.003-2.668,4.433-4.004c1.431-1.334,2.907-2.574,4.434-3.718
			c0.857-0.666,1.737-1.096,2.646-1.287c0.905-0.19,1.738,0.285,2.502,1.43c0.762,1.24,0.952,2.527,0.572,3.861
			c-0.382,1.336-0.813,2.624-1.287,3.86c-1.05,2.767-2.098,5.505-3.146,8.223c-1.05,2.717-2.098,5.459-3.146,8.223
			c-0.764,2.288-1.383,4.386-1.859,6.292c-0.479,1.908-0.812,3.955-1.001,6.149c2.288-1.051,4.337-2.217,6.149-3.504
			c1.81-1.286,3.503-2.717,5.076-4.29c1.572-1.572,3.122-3.336,4.646-5.29c1.524-1.953,3.24-4.123,5.148-6.507
			c0.094,0.858,0.094,1.431,0,1.717c-2.099,4.861-4.625,8.865-7.579,12.012c-2.956,3.146-6.006,6.053-9.152,8.723
			c-1.43,1.145-2.859,2.002-4.29,2.574c-1.622,0.762-3.073,0.429-4.36-1.001s-1.979-3.432-2.073-6.006
			c-0.096-2.194,0.071-4.313,0.5-6.364c0.429-2.049,1.022-4.122,1.787-6.22c0.38-1.145,0.762-2.288,1.144-3.433
			c0.38-1.144,0.81-2.287,1.287-3.432l2.288-6.006C164.598,83.63,164.358,83.202,163.979,82.629z"/>
		<path fill="#201E21" stroke="#000000" stroke-width="3" stroke-miterlimit="10" d="M192.007,82.629l4.861-5.005
			c1.145-1.048,2.311-1.979,3.503-2.789c1.191-0.809,2.454-1.31,3.79-1.501c1.907-0.19,3.383,0.5,4.434,2.073
			c1.048,1.572,1.523,3.79,1.43,6.649c-0.096,2.86-0.764,5.388-2.002,7.579c-1.525,2.67-3.242,4.625-5.148,5.863
			c-1.907,1.24-4.053,2.623-6.435,4.146c0.38,1.145,1.048,2.241,2.002,3.289c0.952,1.051,1.716,1.669,2.288,1.859
			c1.334,1.336,2.789,1.837,4.362,1.501c1.571-0.333,3.192-1.144,4.86-2.431s3.336-2.954,5.006-5.005
			c1.666-2.05,3.24-4.123,4.72-6.221c1.478-2.096,2.812-4.098,4.004-6.006c1.19-1.906,2.167-3.383,2.933-4.433
			c0.666-0.952,1.381-1.811,2.146-2.574c0.476,0.764,0.666,1.408,0.571,1.931c-0.096,0.525-0.238,1.072-0.43,1.646
			c-2.384,5.529-5.125,10.438-8.222,14.729c-3.101,4.29-6.459,8.104-10.082,11.44c-3.528,3.146-6.96,4.146-10.296,3.003
			c-3.338-1.145-6.389-4.004-9.152-8.58c-0.572-0.952-1.215-2.146-1.93-3.575s-1.408-2.764-2.074-4.004
			c-1.24,2.194-2.194,4.339-2.86,6.436c-0.668,2.098-1.858,4.004-3.575,5.72c-0.762,0.857-1.501,0.976-2.216,0.356
			c-0.715-0.621-1.12-1.693-1.215-3.218c0-5.624,0.907-11.129,2.717-16.516c1.811-5.385,3.669-10.604,5.577-15.659
			c2.288-5.148,4.408-9.914,6.363-14.3c1.953-4.384,3.883-8.413,5.792-12.083c1.906-3.669,3.79-6.982,5.647-9.938
			c1.859-2.954,3.837-5.577,5.936-7.865c1.049-1.048,2.096-1.787,3.146-2.216c1.049-0.429,2.191-0.309,3.433,0.357
			c0.476,0.191,0.833,0.668,1.072,1.43c0.235,0.764,0.262,1.479,0.071,2.146c-0.287,0.764-0.645,1.479-1.073,2.145
			c-0.429,0.668-0.835,1.336-1.216,2.002c-2.479,3.433-4.646,6.771-6.506,10.01c-1.857,3.242-3.625,6.557-5.291,9.938
			c-1.669,3.385-3.313,7.007-4.934,10.868c-1.622,3.86-3.385,8.128-5.291,12.798c-0.479,1.24-0.858,2.337-1.145,3.289
			L192.007,82.629z M205.592,79.626c-1.717-0.094-2.839-0.071-3.361,0.071c-0.525,0.143-1.265,0.597-2.216,1.358
			c-1.813,1.622-3.242,3.146-4.29,4.576c-1.05,1.43-1.955,3.242-2.717,5.435c1.619,0.668,3.073,0.524,4.36-0.43
			c1.287-0.952,2.549-1.953,3.79-3.003c0.952-0.857,1.881-1.834,2.789-2.931C204.852,83.609,205.398,81.915,205.592,79.626z"/>
		<path fill="#201E21" stroke="#000000" stroke-width="3" stroke-miterlimit="10" d="M311.982,19.281
			c-2.859,0.479-5.506,0.93-7.938,1.358c-2.43,0.43-4.84,0.835-7.221,1.215c-6.104,1.051-11.703,1.479-16.804,1.287
			c-5.103-0.189-10.13-1.523-15.086-4.004c-0.954-0.572-1.788-1.238-2.503-2.002c-0.716-0.762-1.169-1.716-1.357-2.859
			c0-0.286,0.021-0.619,0.07-1.002c0.047-0.38,0.071-0.762,0.071-1.144c0.188,0,0.403-0.021,0.646-0.071
			c0.234-0.047,0.402-0.021,0.5,0.071c1.905,2.002,4.336,3.289,7.293,3.861c2.953,0.571,5.623,0.764,8.008,0.571
			c6.672-0.285,13.106-1.001,19.305-2.145c6.197-1.145,12.347-2.239,18.447-3.289c2.002-0.38,3.861-0.905,5.576-1.573
			c1.717-0.666,3.239-1.763,4.575-3.289c0.666-0.762,1.405-1.381,2.218-1.858c0.809-0.477,1.596-1.001,2.358-1.573
			c0.478-0.19,0.978-0.143,1.502,0.143c0.522,0.286,0.834,0.765,0.931,1.431c-0.097,0.479-0.145,1.001-0.145,1.572
			c0,0.572,0,1.193,0,1.859c3.434,0.192,6.863,0.025,10.296-0.5c3.433-0.522,6.911-0.594,10.438-0.214
			c3.432,0.286,6.529,1.097,9.295,2.431c0.951,0.479,1.596,0.858,1.933,1.145c0.332,0.286,0.929,1.05,1.786,2.288
			c0,0.479-0.168,0.739-0.502,0.787c-0.334,0.049-0.596,0.071-0.784,0.071c-2.671-0.666-5.578-0.952-8.724-0.857
			c-3.146,0.096-6.342,0.335-9.582,0.715c-3.242,0.382-6.436,0.857-9.58,1.43c-3.146,0.572-6.006,1.001-8.58,1.287
			c-1.525,0.286-2.573,0.907-3.146,1.859c-4.101,5.529-8.033,11.393-11.797,17.589c-3.769,6.198-7.344,12.562-10.728,19.09
			c-3.386,6.531-6.528,13.084-9.438,19.663c-2.908,6.578-5.505,13.013-7.793,19.305c-0.479,1.336-0.979,2.742-1.5,4.219
			c-0.525,1.479-0.932,2.98-1.217,4.505c-0.286,1.525-0.406,3.052-0.357,4.575c0.047,1.524,0.357,2.907,0.931,4.147
			c1.618,3.622,3.86,4.527,6.722,2.717c2.189-1.622,3.979-3.457,5.359-5.505c1.382-2.049,2.408-4.241,3.076-6.578
			c0.664-2.335,1.047-4.741,1.145-7.221c0.094-2.479-0.05-4.909-0.43-7.293c-0.098-0.763,0-1.667,0.285-2.717
			c0-0.286,0.215-0.451,0.646-0.5c0.428-0.048,0.734,0.07,0.928,0.356l1.146,1.859c0.952,3.052,1.55,6.127,1.786,9.224
			c0.238,3.099-0.021,6.078-0.784,8.938c-0.767,2.859-2.052,5.527-3.86,8.008c-1.813,2.478-4.291,4.623-7.438,6.435
			c-2.287,1.334-4.575,1.646-6.863,0.931c-2.287-0.716-4.242-2.313-5.861-4.791c-1.432-2.48-2.408-5.077-2.934-7.793
			c-0.523-2.718-0.764-5.457-0.715-8.224c0.047-2.764,0.357-5.505,0.931-8.222c0.571-2.717,1.286-5.313,2.146-7.793
			c1.906-5.148,4.123-10.486,6.648-16.017c2.523-5.527,5.241-11.083,8.148-16.659c2.908-5.577,5.938-11.033,9.082-16.374
			C305.689,28.814,308.833,23.856,311.982,19.281z"/>
		<path fill="#201E21" stroke="#000000" stroke-width="3" stroke-miterlimit="10" d="M333.859,84.345
			c-2.1,1.336-3.91,2.768-5.436,4.29c-1.525,1.526-2.885,3.075-4.075,4.647c-1.192,1.572-2.313,3.124-3.36,4.646
			c-1.05,1.526-2.146,3.003-3.289,4.434c-0.953,1.144-1.883,2.217-2.787,3.218c-0.907,1.001-1.838,1.978-2.789,2.932
			c-0.666,0.572-1.31,0.547-1.932-0.072c-0.617-0.62-0.977-1.454-1.072-2.502c0-0.857,0-1.737,0-2.646
			c0-0.905,0.098-1.788,0.287-2.646c0.285-1.334,0.596-2.646,0.93-3.933c0.335-1.287,0.738-2.549,1.216-3.79
			c1.146-3.24,2.265-6.457,3.36-9.652c1.095-3.192,2.311-6.313,3.646-9.366c1.903-4.385,4.024-9.08,6.362-14.085
			c2.335-5.006,4.72-9.699,7.15-14.085c2.43-4.385,4.813-8.126,7.147-11.227c2.335-3.097,4.455-4.933,6.362-5.505
			c1.524,0,2.408,0.478,2.646,1.43c0.236,0.954,0.166,2.099-0.214,3.433c-0.384,1.336-0.954,2.67-1.717,4.004
			c-0.765,1.336-1.384,2.337-1.858,3.003c-2.193,3.432-3.98,6.363-5.361,8.794c-1.385,2.431-2.623,4.791-3.719,7.079
			c-1.099,2.288-2.217,4.744-3.361,7.364c-1.144,2.622-2.623,5.888-4.433,9.795c-1.05,2.193-2.073,4.719-3.073,7.579
			c-1.002,2.859-1.885,5.34-2.646,7.436c1.523-1.238,3.289-2.789,5.291-4.647c2.002-1.857,3.813-3.312,5.436-4.36
			c1.237-0.858,2.668-1.287,4.289-1.287c1.906,0.096,3.336,1.168,4.291,3.217c0.951,2.051,1.094,4.458,0.428,7.222
			c-0.285,1.145-0.644,2.267-1.071,3.36c-0.429,1.097-0.884,2.17-1.356,3.218l-3.861,8.866l-1.287,3.861
			c0.478,0.666,0.904,0.952,1.287,0.857c0.379-0.096,0.762-0.335,1.146-0.715c3.906-4.29,7.769-8.699,11.583-13.228
			c3.813-4.527,6.958-8.509,9.438-11.941c0,0.479,0,1.193,0,2.146c0,0.954-0.049,1.525-0.143,1.716
			c-3.338,5.434-6.746,10.345-10.227,14.729c-3.479,4.387-7.315,8.674-11.512,12.87c-0.668,0.666-1.357,1.287-2.072,1.859
			s-1.455,1.048-2.217,1.43c-1.908,0.858-3.481,0.429-4.719-1.287c-1.24-1.716-1.623-4.053-1.146-7.007
			c0.285-2.288,0.787-4.479,1.502-6.578c0.715-2.096,1.479-4.146,2.287-6.148c0.811-2.002,1.621-4.026,2.433-6.077
			C332.451,88.947,333.191,86.73,333.859,84.345z"/>
		<path fill="#201E21" stroke="#000000" stroke-width="3" stroke-miterlimit="10" d="M374.468,88.064
			c1.049,0.383,2.383,0.312,4.004-0.214c1.619-0.522,3.219-1.334,4.791-2.431c1.572-1.095,3.051-2.359,4.434-3.79
			c1.381-1.43,2.359-2.811,2.932-4.147c0.572,1.051,0.666,2.099,0.287,3.146c-0.383,1.05-0.766,1.812-1.145,2.288
			c-1.053,1.336-2.289,2.623-3.721,3.861c-1.43,1.239-2.932,2.358-4.504,3.359c-1.57,1.001-3.217,1.859-4.934,2.574
			s-3.338,1.122-4.861,1.215c-0.954,1.623-1.813,3.003-2.574,4.147c-0.764,1.144-1.501,2.17-2.217,3.074
			c-0.715,0.907-1.43,1.741-2.145,2.503c-0.716,0.764-1.552,1.572-2.504,2.431c-2.572,2.86-5.576,3.525-9.01,2.002
			c-2.287-1.05-3.883-3.05-4.79-6.006c-0.903-2.954-0.834-6.149,0.215-9.581c1.337-4.576,3.386-8.055,6.147-10.439
			c1.049-0.857,2.002-1.81,2.861-2.859c0.855-1.048,1.666-2.239,2.43-3.575c2.191-4.098,5.195-6.292,9.01-6.578
			c2.097,0,3.646,0.74,4.646,2.216c1.002,1.479,1.621,3.268,1.859,5.363c0.234,2.098,0.215,4.218-0.07,6.363
			C375.328,85.132,374.945,86.826,374.468,88.064z M359.311,90.495c-1.717,2.002-2.858,4.481-3.433,7.436c0,0.286,0,0.715,0,1.287
			s0.07,1.122,0.215,1.646c0.145,0.524,0.43,0.906,0.857,1.144c0.428,0.239,1.022,0.167,1.787-0.214
			c1.145-0.572,2.383-1.716,3.719-3.432c1.334-1.717,2.431-3.433,3.289-5.148c-1.717-0.19-3.027-0.523-3.934-1.001
			S360.074,91.163,359.311,90.495z M367.605,75.623c-0.765,0.286-1.501,0.787-2.217,1.501c-0.715,0.714-1.337,1.501-1.857,2.359
			c-0.525,0.857-0.931,1.74-1.217,2.646c-0.285,0.907-0.383,1.694-0.285,2.359c0.094,0.479,0.451,0.954,1.072,1.43
			c0.618,0.478,1.286,0.858,2.002,1.144c0.715,0.286,1.451,0.454,2.217,0.5c0.762,0.05,1.43-0.021,2.002-0.214
			c0.381-0.952,0.666-2.167,0.856-3.646c0.19-1.478,0.237-2.882,0.146-4.219c-0.098-1.335-0.358-2.406-0.787-3.218
			C369.107,75.457,368.462,75.243,367.605,75.623z"/>
		<path fill="#201E21" stroke="#000000" stroke-width="3" stroke-miterlimit="10" d="M397.347,77.338
			c0.764-0.476,1.479-0.952,2.145-1.43c0.666-0.477,1.381-0.858,2.145-1.145c1.051-0.571,2.193-0.762,3.436-0.571
			c1.143,0.382,1.977,0.953,2.502,1.716c0.521,0.764,0.881,1.644,1.072,2.645c0.188,1.001,0.262,2.027,0.215,3.075
			c-0.049,1.05-0.025,2.051,0.07,3.003c0.951-0.952,1.932-2.023,2.932-3.217c1.002-1.191,2.074-2.288,3.219-3.289
			s2.359-1.81,3.646-2.431c1.285-0.619,2.645-0.881,4.072-0.787c1.434-0.095,2.48,0.597,3.146,2.073
			c0.666,1.479,0.715,3.268,0.143,5.362c-0.477,1.336-0.953,2.624-1.43,3.861c-0.479,1.24-0.953,2.526-1.43,3.861
			c-0.668,1.907-1.336,4.075-2.002,6.506c-0.668,2.431-1.287,4.601-1.859,6.507c-0.191,0.478-0.285,0.979-0.285,1.501
			c0,0.524-0.049,1.168-0.143,1.93c0.475-0.094,0.879-0.165,1.215-0.214c0.332-0.047,0.594-0.166,0.787-0.357
			c3.811-3.432,7.672-7.007,11.582-10.725c1.619-1.62,3.24-3.336,4.859-5.147c1.621-1.811,3.193-3.575,4.723-5.291
			c0.568,0.764,0.734,1.383,0.5,1.858c-0.24,0.479-0.5,0.954-0.787,1.43c-2.193,3.053-4.361,5.959-6.506,8.724
			c-2.146,2.766-4.459,5.34-6.938,7.722c-1.051,0.954-2.098,1.908-3.146,2.86c-1.051,0.952-2.1,1.858-3.146,2.717
			c-0.668,0.476-1.355,0.952-2.072,1.43c-0.715,0.477-1.453,0.81-2.217,1.001c-1.24,0.477-2.357,0.522-3.359,0.144
			c-1-0.382-1.787-1.073-2.359-2.074s-0.93-2.241-1.072-3.718c-0.143-1.478,0.021-3.168,0.5-5.077
			c0.479-1.62,1.023-3.575,1.646-5.863c0.619-2.288,1.264-4.241,1.932-5.863c0.285-1.048,0.619-2.072,1-3.074
			c0.381-1.001,0.43-2.12,0.145-3.36c-1.24,0.192-2.553,1.05-3.934,2.574c-1.383,1.525-2.67,3.267-3.859,5.219
			c-1.193,1.955-2.24,3.91-3.146,5.863c-0.906,1.955-1.5,3.359-1.787,4.218c-0.572,2.002-1.287,3.814-2.145,5.434
			c-0.668,1.238-1.48,2.146-2.434,2.718c-1.238,0.762-2.266,0.595-3.072-0.5c-0.813-1.098-0.979-2.597-0.5-4.504
			c0.855-3.24,1.857-6.529,3.002-9.867c0.666-1.811,1.334-3.575,2.002-5.291c0.666-1.716,1.287-3.433,1.857-5.148
			c0.189-0.666,0.264-1.357,0.215-2.073c-0.049-0.715-0.023-1.404,0.072-2.073c-0.857-0.19-1.598-0.022-2.217,0.5
			c-0.621,0.524-1.168,1.072-1.646,1.645c-2.857,3.242-5.387,7.293-7.578,12.155c-0.857,2.002-1.717,4.004-2.572,6.006
			c-0.859,2.002-1.768,3.957-2.719,5.863c-1.145,2.573-2.383,3.383-3.719,2.431c-0.857-0.478-1.502-1.215-1.932-2.216
			c-0.428-1.001-0.547-2.167-0.357-3.503c0-0.952,0.1-1.667,0.287-2.146c2.002-8.388,4.861-16.159,8.58-23.309
			c1.047-1.811,2.119-3.025,3.217-3.646c1.098-0.618,2.121-0.547,3.074,0.215c0.479,0.382,0.906,0.857,1.287,1.43
			C396.582,76.195,396.964,76.767,397.347,77.338z"/>
		<path fill="#201E21" stroke="#000000" stroke-width="3" stroke-miterlimit="10" d="M454.404,107.655
			c0.572,0,1.096,0.047,1.572,0.143c0.477,0.094,0.904,0,1.285-0.286c1.336-1.144,2.74-2.478,4.221-4.004
			c1.477-1.523,2.932-3.146,4.359-4.862c1.434-1.716,2.789-3.383,4.076-5.005c1.287-1.62,2.453-3.05,3.504-4.29
			c0.285-0.38,0.596-0.689,0.932-0.93c0.332-0.237,0.643-0.451,0.93-0.644c0.475,0.857,0.643,1.598,0.5,2.217
			c-0.145,0.621-0.357,1.168-0.646,1.645c-1.143,1.716-2.406,3.6-3.787,5.648c-1.385,2.051-2.84,4.075-4.361,6.077
			c-1.525,2.002-3.123,3.836-4.791,5.506c-1.668,1.667-3.268,2.931-4.789,3.79c-3.434,1.81-6.105,0.476-8.008-4.004
			c-0.383-0.668-0.623-1.336-0.717-2.002l-0.717-1.001l-7.293,1.286c-2.857,0-4.955-0.809-6.291-2.431
			c-1.334-1.62-2.002-3.646-2.002-6.077c0-2.431,0.598-5.077,1.787-7.937c1.193-2.86,2.814-5.528,4.861-8.008
			c2.049-2.479,4.457-4.599,7.223-6.363c2.764-1.763,5.768-2.789,9.008-3.075c1.434,0,2.861,0.621,4.291,1.859
			c1.334,1.05,2.191,2.67,2.574,4.861c0.379,2.194,0.189,4.29-0.572,6.292c-0.383,0.954-0.906,1.431-1.57,1.431
			c-0.193,0.096-0.432-0.047-0.717-0.43c-0.285-0.38-0.523-0.762-0.717-1.144c-0.189-0.19-0.285-0.5-0.285-0.93
			s-0.049-0.833-0.143-1.216c-0.096-0.857-0.357-1.477-0.787-1.858c-0.43-0.38-0.883-0.572-1.357-0.572
			c-0.668,0.096-1.338,0.192-2.004,0.286c-0.668,0.096-1.285,0.335-1.855,0.715c-4.672,2.767-8.344,7.246-11.012,13.442
			c-0.191,0.478-0.357,1.024-0.5,1.645c-0.145,0.621-0.313,1.215-0.502,1.787c-0.191,0.668-0.145,1.313,0.145,1.931
			c0.285,0.621,0.619,0.836,1,0.645c1.811-0.666,3.551-1.43,5.221-2.288c1.666-0.858,3.168-2.382,4.504-4.576
			c1.049-1.716,2.191-3.097,3.434-4.146c0.762-0.763,1.596-1.191,2.502-1.287c0.906-0.094,1.789,0.096,2.646,0.572
			c0.479,0.285,0.811,0.857,1,1.716c0.191,0.857,0.096,1.572-0.283,2.145c-0.48,0.765-0.932,1.479-1.359,2.146
			c-0.428,0.668-0.881,1.383-1.357,2.145c-0.764,1.336-1.453,2.695-2.072,4.076C454.857,103.675,454.498,105.462,454.404,107.655z"
			/>
		<path fill="#201E21" stroke="#000000" stroke-width="3" stroke-miterlimit="10" d="M470.492,109.249
			c-0.343-3.891-0.517-7.61-0.517-11.159c-0.112-6.637,0.943-12.188,3.178-16.651c2.229-4.464,5.348-7.324,9.355-8.584
			c1.142-0.456,2.288-0.626,3.43-0.515c1.145,0.114,2.289,0.631,3.436,1.545c1.029,0.917,1.772,2.031,2.231,3.349
			c0.455,1.316,0.57,2.948,0.341,4.892c-0.228,2.746-0.917,5.093-2.062,7.038c-1.145,1.947-2.689,3.836-4.631,5.666
			c0.57-1.945,1.083-3.547,1.543-4.809c0.457-1.258,0.8-2.516,1.029-3.775c0.112-0.571,0.141-1.258,0.084-2.061
			c-0.059-0.799-0.199-1.486-0.429-2.06c-0.457-0.915-0.973-1.315-1.545-1.201s-1.145,0.458-1.717,1.029
			c-0.916,0.916-1.604,1.947-2.059,3.09c-2.29,5.724-3.205,12.248-2.748,19.57c6.294-1.717,11.759-4.661,16.395-8.841
			c4.633-4.176,8.781-8.781,12.443-13.819c0.345,0.802,0.4,1.403,0.176,1.802c-0.232,0.402-0.46,0.832-0.687,1.288
			c-1.374,3.434-3.149,6.497-5.323,9.185c-2.176,2.689-4.549,5.064-7.125,7.124c-2.577,2.06-5.233,3.862-7.981,5.407
			c-2.746,1.545-5.438,2.832-8.07,3.862c-0.115,1.604-0.172,3.149-0.172,4.636s-0.114,3.032-0.345,4.636
			c-0.687,7.78-3.031,13.846-7.038,18.196c-1.14,1.143-2.316,1.975-3.518,2.488c-1.202,0.515-2.49,0.543-3.864,0.087
			c-1.943-0.574-3.404-1.976-4.377-4.205c-0.971-2.232-1.285-4.837-0.945-7.812c0.345-2.634,0.922-5.037,1.722-7.211
			c0.802-2.175,1.945-4.063,3.43-5.665c0.919-1.146,1.888-2.201,2.922-3.176C468.088,111.624,469.232,110.508,470.492,109.249z
			 M463.797,132.423c1.026-1.373,1.885-2.489,2.574-3.349c0.688-0.858,1.231-1.689,1.632-2.489c0.401-0.802,0.746-1.629,1.027-2.488
			c0.288-0.859,0.6-1.918,0.944-3.178c0.115-0.573,0.146-1.229,0.085-1.974c-0.057-0.746-0.085-1.52-0.085-2.318
			c-3.317,2.747-5.406,5.207-6.267,7.383C462.852,126.185,462.88,128.989,463.797,132.423z"/>
		<g>
			<path stroke="#000000" stroke-width="2" stroke-miterlimit="10" d="M43.191,133.531v2.727h-7.072v-2.727H43.191z"/>
			<path stroke="#000000" stroke-width="2" stroke-miterlimit="10" d="M51.239,124.058c1.511-0.271,3.482-0.405,5.533-0.405
				c3.482,0,5.75,0.566,7.477,1.89c1.89,1.403,3.077,3.671,3.077,6.91c0,3.481-1.269,5.885-2.996,7.369
				c-1.917,1.593-4.859,2.348-8.422,2.348c-2.132,0-3.671-0.135-4.669-0.27V124.058z M55.341,138.876
				c0.351,0.081,0.945,0.081,1.431,0.081c3.752,0.027,6.208-2.024,6.208-6.37c0-3.914-2.213-5.776-5.776-5.776
				c-0.891,0-1.512,0.081-1.863,0.162V138.876z"/>
			<path stroke="#000000" stroke-width="2" stroke-miterlimit="10" d="M73.054,136.663c0.135,1.728,1.809,2.537,3.725,2.537
				c1.403,0,2.537-0.188,3.644-0.566l0.54,2.78c-1.35,0.566-2.996,0.836-4.777,0.836c-4.481,0-7.045-2.591-7.045-6.748
				c0-3.347,2.105-7.045,6.667-7.045c4.265,0,5.884,3.32,5.884,6.586c0,0.702-0.081,1.323-0.135,1.646L73.054,136.663z
				 M77.885,133.856c0-0.972-0.432-2.672-2.294-2.672c-1.755,0-2.457,1.593-2.564,2.672H77.885z M80.153,123.086l-3.293,4.103
				h-2.808l2.322-4.103H80.153z"/>
			<path stroke="#000000" stroke-width="2" stroke-miterlimit="10" d="M87.202,128.781l1.781,6.127
				c0.324,1.106,0.54,2.159,0.756,3.212h0.081c0.216-1.079,0.432-2.078,0.729-3.212l1.701-6.127h4.319l-4.913,13.199h-4.103
				l-4.805-13.199H87.202z"/>
			<path stroke="#000000" stroke-width="2" stroke-miterlimit="10" d="M101.107,136.663c0.135,1.728,1.809,2.537,3.725,2.537
				c1.404,0,2.537-0.188,3.644-0.566l0.54,2.78c-1.35,0.566-2.996,0.836-4.777,0.836c-4.481,0-7.045-2.591-7.045-6.748
				c0-3.347,2.105-7.045,6.667-7.045c4.265,0,5.884,3.32,5.884,6.586c0,0.702-0.081,1.323-0.135,1.646L101.107,136.663z
				 M105.938,133.856c0-0.972-0.432-2.672-2.294-2.672c-1.754,0-2.456,1.593-2.564,2.672H105.938z"/>
			<path stroke="#000000" stroke-width="2" stroke-miterlimit="10" d="M112.205,122.816h4.103v19.165h-4.103V122.816z"/>
			<path stroke="#000000" stroke-width="2" stroke-miterlimit="10" d="M125.675,142.278c-3.86,0-6.829-2.537-6.829-6.802
				c0-4.266,2.808-6.991,7.072-6.991c4.022,0,6.721,2.78,6.721,6.774c0,4.806-3.428,7.019-6.937,7.019H125.675z M125.756,139.335
				c1.62,0,2.619-1.593,2.619-3.968c0-1.943-0.756-3.94-2.619-3.94c-1.943,0-2.699,1.997-2.699,3.968c0,2.24,0.945,3.94,2.672,3.94
				H125.756z"/>
			<path stroke="#000000" stroke-width="2" stroke-miterlimit="10" d="M135.181,133.208c0-1.728-0.054-3.186-0.108-4.427h3.563
				l0.189,1.835h0.054c0.972-1.376,2.483-2.132,4.4-2.132c2.888,0,5.479,2.51,5.479,6.721c0,4.805-3.05,7.072-5.993,7.072
				c-1.592,0-2.834-0.647-3.428-1.512h-0.054v6.56h-4.103V133.208z M139.284,136.312c0,0.324,0.027,0.595,0.081,0.864
				c0.27,1.106,1.214,1.943,2.402,1.943c1.781,0,2.834-1.484,2.834-3.725c0-2.105-0.945-3.698-2.78-3.698
				c-1.161,0-2.186,0.863-2.456,2.078c-0.054,0.216-0.081,0.486-0.081,0.729V136.312z"/>
			<path stroke="#000000" stroke-width="2" stroke-miterlimit="10" d="M151.327,133.208c0-1.728-0.054-3.186-0.108-4.427h3.563
				l0.189,1.835h0.054c0.972-1.376,2.483-2.132,4.4-2.132c2.888,0,5.479,2.51,5.479,6.721c0,4.805-3.05,7.072-5.993,7.072
				c-1.592,0-2.834-0.647-3.428-1.512h-0.054v6.56h-4.103V133.208z M155.43,136.312c0,0.324,0.027,0.595,0.081,0.864
				c0.27,1.106,1.214,1.943,2.402,1.943c1.781,0,2.834-1.484,2.834-3.725c0-2.105-0.945-3.698-2.78-3.698
				c-1.161,0-2.186,0.863-2.456,2.078c-0.054,0.216-0.081,0.486-0.081,0.729V136.312z"/>
			<path stroke="#000000" stroke-width="2" stroke-miterlimit="10" d="M170.712,136.663c0.135,1.728,1.809,2.537,3.725,2.537
				c1.403,0,2.537-0.188,3.644-0.566l0.54,2.78c-1.35,0.566-2.996,0.836-4.777,0.836c-4.481,0-7.045-2.591-7.045-6.748
				c0-3.347,2.105-7.045,6.667-7.045c4.265,0,5.884,3.32,5.884,6.586c0,0.702-0.081,1.323-0.135,1.646L170.712,136.663z
				 M175.543,133.856c0-0.972-0.432-2.672-2.294-2.672c-1.755,0-2.457,1.593-2.564,2.672H175.543z"/>
			<path stroke="#000000" stroke-width="2" stroke-miterlimit="10" d="M194.253,137.742c0,1.728,0.054,3.132,0.108,4.238h-3.563
				l-0.189-1.862h-0.081c-0.513,0.81-1.754,2.159-4.13,2.159c-2.699,0-4.643-1.674-4.643-5.749v-7.747h4.103v7.099
				c0,1.917,0.621,3.077,2.079,3.077c1.134,0,1.809-0.782,2.051-1.431c0.108-0.242,0.162-0.54,0.162-0.891v-7.854h4.103V137.742z"/>
			<path stroke="#000000" stroke-width="2" stroke-miterlimit="10" d="M197.577,133.127c0-1.943-0.027-3.212-0.108-4.346h3.509
				l0.162,2.456h0.108c0.675-1.943,2.267-2.753,3.563-2.753c0.378,0,0.567,0.026,0.864,0.081v3.859
				c-0.351-0.054-0.675-0.107-1.134-0.107c-1.512,0-2.537,0.782-2.807,2.078c-0.054,0.27-0.081,0.566-0.081,0.918v6.667h-4.103
				L197.577,133.127z"/>
			<path stroke="#000000" stroke-width="2" stroke-miterlimit="10" d="M210.565,144.545c1.053-0.081,1.917-0.324,2.429-0.864
				c0.594-0.62,0.81-1.673,0.81-4.292v-10.607h4.103v11.606c0,2.861-0.621,4.616-1.863,5.75c-1.215,1.106-3.131,1.619-5.075,1.619
				L210.565,144.545z M215.802,127.054c-1.377,0-2.268-0.972-2.268-2.187c0-1.242,0.918-2.187,2.321-2.187
				c1.404,0,2.268,0.944,2.294,2.187c0,1.215-0.891,2.187-2.321,2.187H215.802z"/>
			<path stroke="#000000" stroke-width="2" stroke-miterlimit="10" d="M233.564,137.742c0,1.728,0.054,3.132,0.108,4.238h-3.563
				l-0.189-1.862h-0.081c-0.513,0.81-1.754,2.159-4.13,2.159c-2.699,0-4.643-1.674-4.643-5.749v-7.747h4.103v7.099
				c0,1.917,0.621,3.077,2.079,3.077c1.134,0,1.809-0.782,2.051-1.431c0.108-0.242,0.162-0.54,0.162-0.891v-7.854h4.103V137.742z"/>
			<path stroke="#000000" stroke-width="2" stroke-miterlimit="10" d="M236.861,132.992c0-1.646-0.054-3.023-0.108-4.211h3.563
				l0.189,1.835h0.081c0.54-0.863,1.862-2.132,4.076-2.132c2.7,0,4.724,1.809,4.724,5.695v7.801h-4.103v-7.315
				c0-1.7-0.594-2.861-2.079-2.861c-1.134,0-1.809,0.783-2.105,1.539c-0.108,0.27-0.135,0.647-0.135,1.025v7.612h-4.103V132.992z"/>
			<path stroke="#000000" stroke-width="2" stroke-miterlimit="10" d="M254.708,127.054c-1.377,0-2.268-0.972-2.268-2.187
				c0-1.242,0.918-2.187,2.321-2.187s2.268,0.944,2.294,2.187c0,1.215-0.891,2.187-2.321,2.187H254.708z M252.684,141.981v-13.199
				h4.103v13.199H252.684z"/>
			<path stroke="#000000" stroke-width="2" stroke-miterlimit="10" d="M266.154,142.278c-3.859,0-6.829-2.537-6.829-6.802
				c0-4.266,2.808-6.991,7.072-6.991c4.021,0,6.721,2.78,6.721,6.774c0,4.806-3.428,7.019-6.937,7.019H266.154z M266.235,139.335
				c1.62,0,2.618-1.593,2.618-3.968c0-1.943-0.756-3.94-2.618-3.94c-1.943,0-2.699,1.997-2.699,3.968c0,2.24,0.945,3.94,2.672,3.94
				H266.235z"/>
			<path stroke="#000000" stroke-width="2" stroke-miterlimit="10" d="M275.687,133.127c0-1.943-0.027-3.212-0.108-4.346h3.509
				l0.162,2.456h0.108c0.675-1.943,2.268-2.753,3.563-2.753c0.378,0,0.567,0.026,0.864,0.081v3.859
				c-0.351-0.054-0.675-0.107-1.134-0.107c-1.512,0-2.537,0.782-2.808,2.078c-0.054,0.27-0.081,0.566-0.081,0.918v6.667h-4.103
				L275.687,133.127z"/>
			<path stroke="#000000" stroke-width="2" stroke-miterlimit="10" d="M297.609,133.531v2.727h-7.072v-2.727H297.609z"/>
			<path stroke="#000000" stroke-width="2" stroke-miterlimit="10" d="M320.853,141.144c-1.269,0.432-3.671,1.025-6.073,1.025
				c-3.32,0-5.723-0.836-7.396-2.429c-1.646-1.593-2.564-3.968-2.564-6.641c0.027-6.046,4.427-9.501,10.393-9.501
				c2.349,0,4.157,0.459,5.048,0.863l-0.864,3.32c-0.998-0.459-2.213-0.783-4.211-0.783c-3.428,0-6.046,1.944-6.046,5.885
				c0,3.779,2.375,5.966,5.749,5.966c0.918,0,1.674-0.108,1.998-0.243v-3.833h-2.808v-3.212h6.775V141.144z"/>
			<path stroke="#000000" stroke-width="2" stroke-miterlimit="10" d="M324.043,133.127c0-1.943-0.027-3.212-0.108-4.346h3.509
				l0.162,2.456h0.108c0.675-1.943,2.268-2.753,3.563-2.753c0.378,0,0.567,0.026,0.864,0.081v3.859
				c-0.351-0.054-0.675-0.107-1.134-0.107c-1.512,0-2.537,0.782-2.808,2.078c-0.054,0.27-0.081,0.566-0.081,0.918v6.667h-4.103
				L324.043,133.127z"/>
			<path stroke="#000000" stroke-width="2" stroke-miterlimit="10" d="M344.965,138.795c0,1.242,0.054,2.457,0.216,3.186h-3.698
				l-0.243-1.322h-0.081c-0.863,1.053-2.213,1.619-3.778,1.619c-2.673,0-4.265-1.943-4.265-4.049c0-3.428,3.077-5.048,7.746-5.048
				v-0.162c0-0.701-0.378-1.7-2.402-1.7c-1.35,0-2.78,0.459-3.644,0.972l-0.756-2.618c0.918-0.513,2.727-1.188,5.129-1.188
				c4.399,0,5.776,2.591,5.776,5.695V138.795z M340.998,135.745c-2.16,0-3.833,0.513-3.833,2.078c0,1.053,0.701,1.565,1.619,1.565
				c0.999,0,1.862-0.675,2.133-1.511c0.054-0.216,0.081-0.459,0.081-0.702V135.745z"/>
			<path stroke="#000000" stroke-width="2" stroke-miterlimit="10" d="M348.235,133.208c0-1.728-0.054-3.186-0.107-4.427h3.563
				l0.189,1.835h0.054c0.972-1.376,2.483-2.132,4.399-2.132c2.889,0,5.479,2.51,5.479,6.721c0,4.805-3.05,7.072-5.992,7.072
				c-1.593,0-2.834-0.647-3.428-1.512h-0.055v6.56h-4.103V133.208z M352.337,136.312c0,0.324,0.027,0.595,0.081,0.864
				c0.271,1.106,1.215,1.943,2.402,1.943c1.782,0,2.835-1.484,2.835-3.725c0-2.105-0.945-3.698-2.78-3.698
				c-1.161,0-2.187,0.863-2.457,2.078c-0.054,0.216-0.081,0.486-0.081,0.729V136.312z"/>
			<path stroke="#000000" stroke-width="2" stroke-miterlimit="10" d="M364.38,122.816h4.103v7.559h0.055
				c0.432-0.595,0.972-1.053,1.619-1.377c0.621-0.324,1.377-0.513,2.133-0.513c2.618,0,4.615,1.809,4.615,5.803v7.693h-4.103v-7.261
				c0-1.728-0.594-2.916-2.133-2.916c-1.079,0-1.754,0.702-2.051,1.458c-0.108,0.243-0.136,0.594-0.136,0.891v7.828h-4.103V122.816z
				"/>
			<path stroke="#000000" stroke-width="2" stroke-miterlimit="10" d="M382.227,127.054c-1.377,0-2.268-0.972-2.268-2.187
				c0-1.242,0.918-2.187,2.321-2.187c1.404,0,2.268,0.944,2.295,2.187c0,1.215-0.891,2.187-2.321,2.187H382.227z M380.203,141.981
				v-13.199h4.103v13.199H380.203z"/>
			<path stroke="#000000" stroke-width="2" stroke-miterlimit="10" d="M387.573,138.417c0.756,0.459,2.322,0.972,3.536,0.972
				c1.242,0,1.755-0.404,1.755-1.079c0-0.702-0.405-1.025-1.916-1.539c-2.754-0.891-3.807-2.402-3.779-3.94
				c0-2.483,2.105-4.346,5.371-4.346c1.539,0,2.889,0.378,3.698,0.782l-0.702,2.808c-0.594-0.297-1.754-0.729-2.86-0.729
				c-0.999,0-1.566,0.404-1.566,1.053c0,0.647,0.514,0.972,2.133,1.538c2.511,0.837,3.536,2.133,3.563,4.049
				c0,2.483-1.917,4.292-5.696,4.292c-1.728,0-3.266-0.405-4.265-0.944L387.573,138.417z"/>
			<path stroke="#000000" stroke-width="2" stroke-miterlimit="10" d="M403.907,125.192v3.59h2.942v3.022h-2.942v4.806
				c0,1.592,0.405,2.321,1.619,2.321c0.567,0,0.837-0.027,1.215-0.108l0.027,3.104c-0.513,0.188-1.512,0.351-2.646,0.351
				c-1.322,0-2.43-0.459-3.104-1.134c-0.756-0.782-1.133-2.052-1.133-3.914v-5.426h-1.755v-3.022h1.755v-2.483L403.907,125.192z"/>
			<path stroke="#000000" stroke-width="2" stroke-miterlimit="10" d="M412.25,136.663c0.135,1.728,1.809,2.537,3.725,2.537
				c1.404,0,2.538-0.188,3.645-0.566l0.54,2.78c-1.35,0.566-2.996,0.836-4.778,0.836c-4.48,0-7.045-2.591-7.045-6.748
				c0-3.347,2.105-7.045,6.667-7.045c4.266,0,5.885,3.32,5.885,6.586c0,0.702-0.081,1.323-0.135,1.646L412.25,136.663z
				 M417.083,133.856c0-0.972-0.433-2.672-2.295-2.672c-1.754,0-2.456,1.593-2.564,2.672H417.083z"/>
			<path stroke="#000000" stroke-width="2" stroke-miterlimit="10" d="M435.038,133.531v2.727h-7.072v-2.727H435.038z"/>
		</g>
	</g>
	<g>
		<path fill="#FFFFFF" d="M-6.778,58.555c-2.362,1.125-4.531,1.265-6.498,0.421c-1.969-0.844-3.795-2.052-5.483-3.628
			c-3.601-3.375-4.892-7.256-3.881-11.643c0.45-1.797,1.099-3.516,1.943-5.146c0.843-1.629,1.883-3.177,3.122-4.64
			c3.375-3.375,7.311-6.355,11.813-8.943c6.186-3.375,12.625-6.13,19.321-8.268c6.691-2.137,13.583-3.993,20.67-5.569
			c4.725-0.899,9.475-1.743,14.258-2.531c4.779-0.786,9.533-1.35,14.257-1.687c1.912-0.225,3.57-0.563,4.977-1.013
			c1.406-0.448,2.618-1.292,3.629-2.532c0.338-0.336,0.731-0.589,1.181-0.759c0.448-0.168,0.786-0.363,1.012-0.59
			c0.112,0.113,0.338,0.168,0.674,0.168h0.337l0.844,3.713c0.786,0.113,1.46,0.168,2.025,0.168c0.562,0,1.124,0,1.688,0
			l38.303,2.362c1.912,0.227,3.823,0.507,5.736,0.845c1.912,0.336,3.824,0.956,5.736,1.855c0.786,0.452,1.519,0.928,2.194,1.433
			c0.674,0.507,1.012,1.21,1.012,2.11c0.11,1.463-1.126,2.531-3.712,3.207c-1.577,0.336-3.15,0.648-4.725,0.928
			c-1.577,0.282-3.266,0.028-5.062-0.76c-0.902-0.448-1.857-0.645-2.869-0.59c-1.012,0.057-2.083-0.026-3.206-0.252
			c-2.814-0.225-6.133-0.422-9.957-0.59c-3.826-0.169-7.792-0.309-11.896-0.422c-4.106-0.111-8.129-0.196-12.065-0.254
			c-3.938-0.055-7.313-0.084-10.124-0.084c-3.037,3.713-5.737,7.622-8.099,11.728c-2.363,4.108-4.838,8.128-7.424,12.064
			c-2.476,3.94-4.979,7.876-7.51,11.812c-2.531,3.939-4.867,7.875-7.002,11.813c0.448,0.9,1.011,1.324,1.687,1.265
			c0.675-0.057,1.292-0.084,1.856-0.084c3.599,0,7.143,0.058,10.63,0.169c3.486,0.113,6.973,0.506,10.462,1.18
			c1.012,0.228,1.995,0.423,2.954,0.591c0.954,0.169,1.826,0.367,2.614,0.59c1.013,0.337,1.687,0.872,2.025,1.603
			c0.337,0.733,0.393,1.548,0.17,2.446c-0.903,1.462-1.914,2.588-3.037,3.374c-1.125,0.788-2.531,1.182-4.218,1.182
			c-1.35,0-2.7-0.111-4.05-0.337c-1.351-0.225-2.757-0.393-4.218-0.507c-2.813-0.338-5.598-0.614-8.353-0.844
			c-2.758-0.223-5.598-0.506-8.521-0.843h-5.906c-1.577,3.037-3.18,6.047-4.81,9.026c-1.632,2.981-3.178,6.048-4.639,9.195
			c-2.139,4.725-4.249,9.507-6.329,14.342c-2.084,4.839-4.133,9.676-6.158,14.512c-1.126,2.362-2.169,4.75-3.123,7.172
			c-0.957,2.417-1.941,4.863-2.952,7.34c-0.451,0.674-0.929,1.405-1.435,2.193c-0.506,0.786-1.041,1.461-1.602,2.023
			c-0.338,0.449-0.874,0.702-1.602,0.762c-0.732,0.055-1.378-0.03-1.942-0.254c-0.338-0.337-0.705-0.732-1.098-1.182
			c-0.395-0.451-0.647-0.902-0.761-1.35c0.224-1.239,0.366-2.476,0.422-3.712c0.056-1.24,0.253-2.477,0.59-3.713
			c1.237-3.601,2.417-7.197,3.544-10.799c1.123-3.6,2.304-7.197,3.543-10.799c2.024-5.287,4.075-10.433,6.158-15.438
			c2.082-5.005,4.472-9.981,7.171-14.934c0.225-0.562,0.393-1.097,0.508-1.603c0.11-0.507,0.278-1.039,0.505-1.603
			c-0.565-0.786-1.238-1.181-2.024-1.181c-0.788,0-1.463,0.057-2.026,0.168c-9.339,0.902-18.28,2.477-26.828,4.725
			c-0.674,0.227-1.462,0.507-2.362,0.844c-0.902,0.337-1.914,0.282-3.037-0.169c0.222-0.338,0.393-0.675,0.506-1.012
			c0.112-0.337,0.279-0.563,0.508-0.676c1.91-0.897,3.821-1.743,5.735-2.531c1.912-0.786,3.936-1.519,6.074-2.193
			c4.16-1.235,8.292-2.304,12.403-3.205c4.105-0.9,8.408-1.63,12.908-2.194c0.223-0.109,0.562-0.224,1.011-0.337
			c0.448-0.111,1.012-0.225,1.687-0.338c0.563-1.124,1.153-2.277,1.772-3.458c0.615-1.181,1.319-2.335,2.107-3.46
			c0.563-1.35,1.238-2.642,2.026-3.881c0.786-1.236,1.517-2.474,2.192-3.713c0.675-1.235,1.405-2.389,2.194-3.459
			c0.786-1.068,1.574-2.219,2.362-3.459c0.786-1.236,1.546-2.445,2.278-3.627c0.73-1.183,1.547-2.389,2.447-3.629
			c0.899-1.124,1.743-2.219,2.531-3.29c0.786-1.068,1.573-2.164,2.364-3.291c0.898-1.124,1.826-2.219,2.782-3.291
			c0.956-1.068,1.882-2.219,2.783-3.459c0.899-1.013,1.797-2.051,2.7-3.123c0.898-1.068,1.687-2.277,2.362-3.627
			c-0.565-0.11-1.013-0.196-1.352-0.253c-0.337-0.056-0.618-0.084-0.843-0.084c-10.014,0.902-19.772,2.362-29.276,4.388
			c-9.508,2.024-18.589,5.343-27.252,9.955c-1.914,0.901-3.712,1.941-5.399,3.123c-1.688,1.181-3.319,2.505-4.893,3.965
			c-0.451,0.564-0.957,1.126-1.519,1.688c-0.564,0.564-1.011,1.127-1.35,1.688c-1.914,2.699-2.532,5.289-1.856,7.762
			c0.675,2.476,2.531,4.614,5.568,6.412c0.899,0.565,1.827,1.041,2.784,1.435C-8.439,57.852-7.566,58.217-6.778,58.555z"/>
		<path fill="#FFFFFF" d="M85.188,89.543l-2.146-0.429c-2.098-0.476-3.669-1.881-4.719-4.218c-1.048-2.335-1.334-5.077-0.857-8.224
			c0.571-4.193,2.002-7.436,4.29-9.724c1.905-1.906,3.432-2.002,4.575-0.286c1.334,1.716,1.717,4.004,1.145,6.864
			c-0.382,1.43-0.882,3.242-1.501,5.434c-0.621,2.194-1.168,3.957-1.646,5.291c0.286,0.668,0.572,0.954,0.858,0.858
			c0.286-0.094,0.572-0.237,0.857-0.429c1.62-1.62,3.025-3.384,4.219-5.291c1.19-1.906,2.691-3.525,4.504-4.862
			c0.762-0.572,1.477-0.644,2.145-0.214c0.666,0.429,1.191,1.215,1.573,2.358c0.476,1.622,0.715,3.195,0.715,4.72
			c0,1.525-0.382,3.052-1.144,4.576c-1.526,1.05-2.837,2.408-3.933,4.075c-1.097,1.669-1.931,3.457-2.503,5.362
			c-0.571,1.908-0.906,3.79-1.001,5.648c-0.096,1.858,0.095,3.503,0.572,4.934c0.286,1.524,0.905,2.217,1.859,2.074
			c0.951-0.144,2.121-0.765,3.503-1.859c1.381-1.095,2.859-2.574,4.433-4.433c1.573-1.859,3.122-3.766,4.647-5.72
			c1.523-1.953,2.906-3.813,4.146-5.577c1.238-1.764,2.239-3.168,3.003-4.219c0.286-0.38,0.595-0.88,0.931-1.501
			c0.333-0.618,0.88-0.736,1.645-0.356c-0.192,0.572-0.382,1.122-0.572,1.645c-0.191,0.525-0.382,1.025-0.571,1.501
			c-1.431,2.86-2.718,5.341-3.861,7.437c-1.145,2.098-2.288,4.028-3.433,5.792c-1.144,1.765-2.431,3.432-3.86,5.005
			c-1.429,1.573-3.195,3.264-5.291,5.077c-0.764,0.666-1.573,1.262-2.431,1.787c-0.858,0.522-1.717,0.88-2.574,1.072
			c-1.431,0.381-2.788,0.262-4.075-0.356c-1.287-0.621-2.36-1.598-3.218-2.932c-0.858-1.337-1.479-2.98-1.859-4.935
			c-0.382-1.953-0.429-4.026-0.143-6.22c0.189-1.62,0.451-3.218,0.787-4.791C84.592,92.904,84.901,91.259,85.188,89.543z"/>
		<path fill="#FFFFFF" d="M126.37,106.846c0.572,0,1.096,0.047,1.573,0.143c0.476,0.094,0.905,0,1.287-0.286
			c1.334-1.144,2.739-2.478,4.218-4.004c1.478-1.523,2.933-3.146,4.361-4.862c1.43-1.716,2.789-3.383,4.076-5.005
			c1.287-1.62,2.454-3.05,3.503-4.29c0.286-0.38,0.594-0.689,0.93-0.93c0.333-0.237,0.645-0.451,0.93-0.644
			c0.477,0.857,0.644,1.598,0.5,2.217c-0.143,0.621-0.357,1.168-0.644,1.645c-1.145,1.716-2.409,3.6-3.79,5.648
			c-1.383,2.051-2.838,4.075-4.362,6.077c-1.525,2.002-3.124,3.836-4.791,5.506c-1.669,1.667-3.267,2.931-4.79,3.79
			c-3.432,1.81-6.103,0.476-8.008-4.004c-0.382-0.668-0.621-1.336-0.715-2.002l-0.715-1.001l-7.293,1.286
			c-2.86,0-4.956-0.809-6.292-2.431c-1.333-1.62-2.002-3.646-2.002-6.077c0-2.431,0.597-5.077,1.788-7.937
			c1.192-2.86,2.813-5.528,4.861-8.008c2.05-2.479,4.456-4.599,7.223-6.363c2.764-1.763,5.767-2.789,9.009-3.075
			c1.43,0,2.86,0.621,4.29,1.859c1.334,1.05,2.191,2.67,2.574,4.861c0.38,2.194,0.189,4.29-0.572,6.292
			c-0.382,0.954-0.907,1.431-1.573,1.431c-0.191,0.096-0.429-0.047-0.715-0.43c-0.286-0.38-0.525-0.762-0.715-1.144
			c-0.192-0.19-0.286-0.5-0.286-0.93s-0.049-0.833-0.143-1.216c-0.097-0.857-0.357-1.477-0.787-1.858
			c-0.43-0.38-0.883-0.572-1.358-0.572c-0.668,0.096-1.336,0.192-2.002,0.286c-0.668,0.096-1.287,0.335-1.859,0.715
			c-4.672,2.767-8.343,7.246-11.011,13.442c-0.191,0.478-0.356,1.024-0.5,1.645c-0.143,0.621-0.311,1.215-0.5,1.787
			c-0.191,0.668-0.143,1.313,0.144,1.931c0.285,0.621,0.618,0.836,1.001,0.645c1.81-0.666,3.55-1.43,5.219-2.288
			c1.667-0.858,3.168-2.382,4.505-4.576c1.048-1.716,2.192-3.097,3.432-4.146c0.763-0.763,1.597-1.191,2.502-1.287
			c0.905-0.094,1.788,0.096,2.646,0.572c0.476,0.285,0.809,0.857,1.001,1.716c0.188,0.857,0.094,1.572-0.286,2.145
			c-0.478,0.765-0.93,1.479-1.358,2.146c-0.429,0.668-0.883,1.383-1.358,2.145c-0.764,1.336-1.455,2.695-2.073,4.076
			C126.822,102.866,126.466,104.654,126.37,106.846z"/>
		<path fill="#FFFFFF" d="M162.979,81.821l-6.006,7.007c-1.908,2.288-3.742,4.672-5.505,7.15c-1.766,2.479-3.218,5.434-4.361,8.866
			c-1.526,4.004-3.289,5.291-5.291,3.86c-1.716-1.144-2.049-3.812-1.001-8.008c1.336-4.766,2.909-9.295,4.719-13.585
			c1.811-4.29,3.955-8.245,6.436-11.869c0.951-1.333,2.002-2.002,3.146-2.002c1.048-0.094,1.811,0.5,2.288,1.788
			c0.476,1.287,0.523,2.789,0.143,4.504c-0.096,0.479-0.215,0.93-0.356,1.359c-0.144,0.429-0.312,0.882-0.5,1.357
			c0.666,0.479,1.119,0.479,1.358,0c0.236-0.476,0.547-0.857,0.929-1.144c1.523-1.334,3.003-2.668,4.433-4.004
			c1.431-1.334,2.907-2.574,4.434-3.718c0.857-0.666,1.737-1.096,2.646-1.287c0.905-0.19,1.738,0.285,2.502,1.43
			c0.762,1.24,0.952,2.527,0.572,3.861c-0.382,1.336-0.813,2.624-1.287,3.86c-1.05,2.767-2.098,5.505-3.146,8.223
			c-1.05,2.717-2.098,5.459-3.146,8.223c-0.764,2.288-1.383,4.386-1.859,6.292c-0.479,1.908-0.812,3.955-1.001,6.149
			c2.288-1.051,4.337-2.217,6.149-3.504c1.81-1.286,3.503-2.717,5.076-4.29c1.572-1.572,3.122-3.336,4.646-5.29
			c1.524-1.953,3.24-4.123,5.148-6.507c0.094,0.858,0.094,1.431,0,1.717c-2.099,4.861-4.625,8.865-7.579,12.012
			c-2.956,3.146-6.006,6.053-9.152,8.723c-1.43,1.145-2.859,2.002-4.29,2.574c-1.622,0.762-3.073,0.429-4.36-1.001
			s-1.979-3.432-2.073-6.006c-0.096-2.194,0.071-4.313,0.5-6.364c0.429-2.049,1.022-4.122,1.787-6.22
			c0.38-1.145,0.762-2.288,1.144-3.433c0.38-1.144,0.81-2.287,1.287-3.432l2.288-6.006
			C163.598,82.822,163.358,82.394,162.979,81.821z"/>
		<path fill="#FFFFFF" d="M191.007,81.821l4.861-5.005c1.145-1.048,2.311-1.979,3.503-2.789c1.191-0.809,2.454-1.31,3.79-1.501
			c1.907-0.19,3.383,0.5,4.434,2.073c1.048,1.572,1.523,3.79,1.43,6.649c-0.096,2.86-0.764,5.388-2.002,7.579
			c-1.525,2.67-3.242,4.625-5.148,5.863c-1.907,1.24-4.053,2.623-6.435,4.146c0.38,1.145,1.048,2.241,2.002,3.289
			c0.952,1.051,1.716,1.669,2.288,1.859c1.334,1.336,2.789,1.837,4.362,1.501c1.571-0.333,3.192-1.144,4.86-2.431
			s3.336-2.954,5.006-5.005c1.666-2.05,3.24-4.123,4.72-6.221c1.478-2.096,2.812-4.098,4.004-6.006
			c1.19-1.906,2.167-3.383,2.933-4.433c0.666-0.952,1.381-1.811,2.146-2.574c0.476,0.764,0.666,1.408,0.571,1.931
			c-0.096,0.525-0.238,1.072-0.43,1.646c-2.384,5.529-5.125,10.438-8.222,14.729c-3.101,4.29-6.459,8.104-10.082,11.44
			c-3.528,3.146-6.96,4.146-10.296,3.003c-3.338-1.145-6.389-4.004-9.152-8.58c-0.572-0.952-1.215-2.146-1.93-3.575
			s-1.408-2.764-2.074-4.004c-1.24,2.194-2.194,4.339-2.86,6.436c-0.668,2.098-1.858,4.004-3.575,5.72
			c-0.762,0.857-1.501,0.976-2.216,0.356c-0.715-0.621-1.12-1.693-1.215-3.218c0-5.624,0.907-11.129,2.717-16.516
			c1.811-5.385,3.669-10.604,5.577-15.659c2.288-5.148,4.408-9.914,6.363-14.3c1.953-4.384,3.883-8.413,5.792-12.083
			c1.906-3.669,3.79-6.982,5.647-9.938c1.859-2.954,3.837-5.577,5.936-7.865c1.049-1.048,2.096-1.787,3.146-2.216
			c1.049-0.429,2.191-0.309,3.433,0.357c0.476,0.191,0.833,0.668,1.072,1.43c0.235,0.764,0.262,1.479,0.071,2.146
			c-0.287,0.764-0.645,1.479-1.073,2.145c-0.429,0.668-0.835,1.336-1.216,2.002c-2.479,3.433-4.646,6.771-6.506,10.01
			c-1.857,3.242-3.625,6.557-5.291,9.938c-1.669,3.385-3.313,7.007-4.934,10.868c-1.622,3.86-3.385,8.128-5.291,12.798
			c-0.479,1.24-0.858,2.337-1.145,3.289L191.007,81.821z M204.592,78.818c-1.717-0.094-2.839-0.071-3.361,0.071
			c-0.525,0.143-1.265,0.597-2.216,1.358c-1.813,1.622-3.242,3.146-4.29,4.576c-1.05,1.43-1.955,3.242-2.717,5.435
			c1.619,0.668,3.073,0.524,4.36-0.43c1.287-0.952,2.549-1.953,3.79-3.003c0.952-0.857,1.881-1.834,2.789-2.931
			C203.852,82.8,204.398,81.107,204.592,78.818z"/>
		<path fill="#FFFFFF" d="M310.982,18.472c-2.859,0.479-5.506,0.93-7.938,1.358c-2.43,0.43-4.84,0.835-7.221,1.215
			c-6.104,1.051-11.703,1.479-16.804,1.287c-5.103-0.189-10.13-1.523-15.086-4.004c-0.954-0.572-1.788-1.238-2.503-2.002
			c-0.716-0.762-1.169-1.716-1.357-2.859c0-0.286,0.021-0.619,0.07-1.002c0.047-0.38,0.071-0.762,0.071-1.144
			c0.188,0,0.403-0.021,0.646-0.071c0.234-0.047,0.402-0.021,0.5,0.071c1.905,2.002,4.336,3.289,7.293,3.861
			c2.953,0.571,5.623,0.764,8.008,0.571c6.672-0.285,13.106-1.001,19.305-2.145c6.197-1.145,12.347-2.239,18.447-3.289
			c2.002-0.38,3.861-0.905,5.576-1.573c1.717-0.666,3.239-1.763,4.575-3.289c0.666-0.762,1.405-1.381,2.218-1.858
			c0.809-0.477,1.596-1.001,2.358-1.573c0.478-0.19,0.978-0.143,1.502,0.143c0.522,0.286,0.834,0.765,0.931,1.431
			c-0.097,0.479-0.145,1.001-0.145,1.572c0,0.572,0,1.193,0,1.859c3.434,0.192,6.863,0.025,10.296-0.5
			c3.433-0.522,6.911-0.594,10.438-0.214c3.432,0.286,6.529,1.097,9.295,2.431c0.951,0.479,1.596,0.858,1.933,1.145
			c0.332,0.286,0.929,1.05,1.786,2.288c0,0.479-0.168,0.739-0.502,0.787c-0.334,0.049-0.596,0.071-0.784,0.071
			c-2.671-0.666-5.578-0.952-8.724-0.857c-3.146,0.096-6.342,0.335-9.582,0.715c-3.242,0.382-6.436,0.857-9.58,1.43
			c-3.146,0.572-6.006,1.001-8.58,1.287c-1.525,0.286-2.573,0.907-3.146,1.859c-4.101,5.529-8.033,11.393-11.797,17.589
			c-3.769,6.198-7.344,12.562-10.728,19.09c-3.386,6.531-6.528,13.084-9.438,19.663c-2.908,6.578-5.505,13.013-7.793,19.305
			c-0.479,1.336-0.979,2.742-1.5,4.219c-0.525,1.479-0.932,2.98-1.217,4.505c-0.286,1.525-0.406,3.052-0.357,4.575
			c0.047,1.524,0.357,2.907,0.931,4.147c1.618,3.622,3.86,4.527,6.722,2.717c2.189-1.622,3.979-3.457,5.359-5.505
			c1.382-2.049,2.408-4.241,3.076-6.578c0.664-2.335,1.047-4.741,1.145-7.221c0.094-2.479-0.05-4.909-0.43-7.293
			c-0.098-0.763,0-1.667,0.285-2.717c0-0.286,0.215-0.451,0.646-0.5c0.428-0.048,0.734,0.07,0.928,0.356l1.146,1.859
			c0.952,3.052,1.55,6.127,1.786,9.224c0.238,3.099-0.021,6.078-0.784,8.938c-0.767,2.859-2.052,5.527-3.86,8.008
			c-1.813,2.478-4.291,4.623-7.438,6.435c-2.287,1.334-4.575,1.646-6.863,0.931c-2.287-0.716-4.242-2.313-5.861-4.791
			c-1.432-2.48-2.408-5.077-2.934-7.793c-0.523-2.718-0.764-5.457-0.715-8.224c0.047-2.764,0.357-5.505,0.931-8.222
			c0.571-2.717,1.286-5.313,2.146-7.793c1.906-5.148,4.123-10.486,6.648-16.017c2.523-5.527,5.241-11.083,8.148-16.659
			c2.908-5.577,5.938-11.033,9.082-16.374C304.689,28.005,307.833,23.047,310.982,18.472z"/>
		<path fill="#FFFFFF" d="M332.859,83.536c-2.1,1.336-3.91,2.768-5.436,4.29c-1.525,1.526-2.885,3.075-4.075,4.647
			c-1.192,1.572-2.313,3.124-3.36,4.646c-1.05,1.526-2.146,3.003-3.289,4.434c-0.953,1.144-1.883,2.217-2.787,3.218
			c-0.907,1.001-1.838,1.978-2.789,2.932c-0.666,0.572-1.31,0.547-1.932-0.072c-0.617-0.62-0.977-1.454-1.072-2.502
			c0-0.857,0-1.737,0-2.646c0-0.905,0.098-1.788,0.287-2.646c0.285-1.334,0.596-2.646,0.93-3.933
			c0.335-1.287,0.738-2.549,1.216-3.79c1.146-3.24,2.265-6.457,3.36-9.652c1.095-3.192,2.311-6.313,3.646-9.366
			c1.903-4.385,4.024-9.08,6.362-14.085c2.335-5.006,4.72-9.699,7.15-14.085c2.43-4.385,4.813-8.126,7.147-11.227
			c2.335-3.097,4.455-4.933,6.362-5.505c1.524,0,2.408,0.478,2.646,1.43c0.236,0.954,0.166,2.099-0.214,3.433
			c-0.384,1.336-0.954,2.67-1.717,4.004c-0.765,1.336-1.384,2.337-1.858,3.003c-2.193,3.432-3.98,6.363-5.361,8.794
			c-1.385,2.431-2.623,4.791-3.719,7.079c-1.099,2.288-2.217,4.744-3.361,7.364c-1.144,2.622-2.623,5.888-4.433,9.795
			c-1.05,2.193-2.073,4.719-3.073,7.579c-1.002,2.859-1.885,5.34-2.646,7.436c1.523-1.238,3.289-2.789,5.291-4.647
			c2.002-1.857,3.813-3.312,5.436-4.36c1.237-0.858,2.668-1.287,4.289-1.287c1.906,0.096,3.336,1.168,4.291,3.217
			c0.951,2.051,1.094,4.458,0.428,7.222c-0.285,1.145-0.644,2.267-1.071,3.36c-0.429,1.097-0.884,2.17-1.356,3.218l-3.861,8.866
			l-1.287,3.861c0.478,0.666,0.904,0.952,1.287,0.857c0.379-0.096,0.762-0.335,1.146-0.715c3.906-4.29,7.769-8.699,11.583-13.228
			c3.813-4.527,6.958-8.509,9.438-11.941c0,0.479,0,1.193,0,2.146c0,0.954-0.049,1.525-0.143,1.716
			c-3.338,5.434-6.746,10.345-10.227,14.729c-3.479,4.387-7.315,8.674-11.512,12.87c-0.668,0.666-1.357,1.287-2.072,1.859
			s-1.455,1.048-2.217,1.43c-1.908,0.858-3.481,0.429-4.719-1.287c-1.24-1.716-1.623-4.053-1.146-7.007
			c0.285-2.288,0.787-4.479,1.502-6.578c0.715-2.096,1.479-4.146,2.287-6.148c0.811-2.002,1.621-4.026,2.433-6.077
			C331.451,88.138,332.191,85.921,332.859,83.536z"/>
		<path fill="#FFFFFF" d="M373.468,87.255c1.049,0.383,2.383,0.312,4.004-0.214c1.619-0.522,3.219-1.334,4.791-2.431
			c1.572-1.095,3.051-2.359,4.434-3.79c1.381-1.43,2.359-2.811,2.932-4.147c0.572,1.051,0.666,2.099,0.287,3.146
			c-0.383,1.05-0.766,1.812-1.145,2.288c-1.053,1.336-2.289,2.623-3.721,3.861c-1.43,1.239-2.932,2.358-4.504,3.359
			c-1.57,1.001-3.217,1.859-4.934,2.574s-3.338,1.122-4.861,1.215c-0.954,1.623-1.813,3.003-2.574,4.147
			c-0.764,1.144-1.501,2.17-2.217,3.074c-0.715,0.907-1.43,1.741-2.145,2.503c-0.716,0.764-1.552,1.572-2.504,2.431
			c-2.572,2.86-5.576,3.525-9.01,2.002c-2.287-1.05-3.883-3.05-4.79-6.006c-0.903-2.954-0.834-6.149,0.215-9.581
			c1.337-4.576,3.386-8.055,6.147-10.439c1.049-0.857,2.002-1.81,2.861-2.859c0.855-1.048,1.666-2.239,2.43-3.575
			c2.191-4.098,5.195-6.292,9.01-6.578c2.097,0,3.646,0.74,4.646,2.216c1.002,1.479,1.621,3.268,1.859,5.363
			c0.234,2.098,0.215,4.218-0.07,6.363C374.328,84.323,373.945,86.018,373.468,87.255z M358.311,89.687
			c-1.717,2.002-2.858,4.481-3.433,7.436c0,0.286,0,0.715,0,1.287s0.07,1.122,0.215,1.646c0.145,0.524,0.43,0.906,0.857,1.144
			c0.428,0.239,1.022,0.167,1.787-0.214c1.145-0.572,2.383-1.716,3.719-3.432c1.334-1.717,2.431-3.433,3.289-5.148
			c-1.717-0.19-3.027-0.523-3.934-1.001S359.074,90.355,358.311,89.687z M366.605,74.815c-0.765,0.286-1.501,0.787-2.217,1.501
			c-0.715,0.714-1.337,1.501-1.857,2.359c-0.525,0.857-0.931,1.74-1.217,2.646c-0.285,0.907-0.383,1.694-0.285,2.359
			c0.094,0.479,0.451,0.954,1.072,1.43c0.618,0.478,1.286,0.858,2.002,1.144c0.715,0.286,1.451,0.454,2.217,0.5
			c0.762,0.05,1.43-0.021,2.002-0.214c0.381-0.952,0.666-2.167,0.856-3.646c0.19-1.478,0.237-2.882,0.146-4.219
			c-0.098-1.335-0.358-2.406-0.787-3.218C368.107,74.649,367.462,74.435,366.605,74.815z"/>
		<path fill="#FFFFFF" d="M396.347,76.53c0.764-0.476,1.479-0.952,2.145-1.43c0.666-0.477,1.381-0.858,2.145-1.145
			c1.051-0.571,2.193-0.762,3.436-0.571c1.143,0.382,1.977,0.953,2.502,1.716c0.521,0.764,0.881,1.644,1.072,2.645
			c0.188,1.001,0.262,2.027,0.215,3.075c-0.049,1.05-0.025,2.051,0.07,3.003c0.951-0.952,1.932-2.023,2.932-3.217
			c1.002-1.191,2.074-2.288,3.219-3.289s2.359-1.81,3.646-2.431c1.285-0.619,2.645-0.881,4.072-0.787
			c1.434-0.095,2.48,0.597,3.146,2.073c0.666,1.479,0.715,3.268,0.143,5.362c-0.477,1.336-0.953,2.624-1.43,3.861
			c-0.479,1.24-0.953,2.526-1.43,3.861c-0.668,1.907-1.336,4.075-2.002,6.506c-0.668,2.431-1.287,4.601-1.859,6.507
			c-0.191,0.478-0.285,0.979-0.285,1.501c0,0.524-0.049,1.168-0.143,1.93c0.475-0.094,0.879-0.165,1.215-0.214
			c0.332-0.047,0.594-0.166,0.787-0.357c3.811-3.432,7.672-7.007,11.582-10.725c1.619-1.62,3.24-3.336,4.859-5.147
			c1.621-1.811,3.193-3.575,4.723-5.291c0.568,0.764,0.734,1.383,0.5,1.858c-0.24,0.479-0.5,0.954-0.787,1.43
			c-2.193,3.053-4.361,5.959-6.506,8.724c-2.146,2.766-4.459,5.34-6.938,7.722c-1.051,0.954-2.098,1.908-3.146,2.86
			c-1.051,0.952-2.1,1.858-3.146,2.717c-0.668,0.476-1.355,0.952-2.072,1.43c-0.715,0.477-1.453,0.81-2.217,1.001
			c-1.24,0.477-2.357,0.522-3.359,0.144c-1-0.382-1.787-1.073-2.359-2.074s-0.93-2.241-1.072-3.718
			c-0.143-1.478,0.021-3.168,0.5-5.077c0.479-1.62,1.023-3.575,1.646-5.863c0.619-2.288,1.264-4.241,1.932-5.863
			c0.285-1.048,0.619-2.072,1-3.074c0.381-1.001,0.43-2.12,0.145-3.36c-1.24,0.192-2.553,1.05-3.934,2.574
			c-1.383,1.525-2.67,3.267-3.859,5.219c-1.193,1.955-2.24,3.91-3.146,5.863c-0.906,1.955-1.5,3.359-1.787,4.218
			c-0.572,2.002-1.287,3.814-2.145,5.434c-0.668,1.238-1.48,2.146-2.434,2.718c-1.238,0.762-2.266,0.595-3.072-0.5
			c-0.813-1.098-0.979-2.597-0.5-4.504c0.855-3.24,1.857-6.529,3.002-9.867c0.666-1.811,1.334-3.575,2.002-5.291
			c0.666-1.716,1.287-3.433,1.857-5.148c0.189-0.666,0.264-1.357,0.215-2.073c-0.049-0.715-0.023-1.404,0.072-2.073
			c-0.857-0.19-1.598-0.022-2.217,0.5c-0.621,0.524-1.168,1.072-1.646,1.645c-2.857,3.242-5.387,7.293-7.578,12.155
			c-0.857,2.002-1.717,4.004-2.572,6.006c-0.859,2.002-1.768,3.957-2.719,5.863c-1.145,2.573-2.383,3.383-3.719,2.431
			c-0.857-0.478-1.502-1.215-1.932-2.216c-0.428-1.001-0.547-2.167-0.357-3.503c0-0.952,0.1-1.667,0.287-2.146
			c2.002-8.388,4.861-16.159,8.58-23.309c1.047-1.811,2.119-3.025,3.217-3.646c1.098-0.618,2.121-0.547,3.074,0.215
			c0.479,0.382,0.906,0.857,1.287,1.43C395.582,75.386,395.964,75.958,396.347,76.53z"/>
		<path fill="#FFFFFF" d="M453.404,106.846c0.572,0,1.096,0.047,1.572,0.143c0.477,0.094,0.904,0,1.285-0.286
			c1.336-1.144,2.74-2.478,4.221-4.004c1.477-1.523,2.932-3.146,4.359-4.862c1.434-1.716,2.789-3.383,4.076-5.005
			c1.287-1.62,2.453-3.05,3.504-4.29c0.285-0.38,0.596-0.689,0.932-0.93c0.332-0.237,0.643-0.451,0.93-0.644
			c0.475,0.857,0.643,1.598,0.5,2.217c-0.145,0.621-0.357,1.168-0.646,1.645c-1.143,1.716-2.406,3.6-3.787,5.648
			c-1.385,2.051-2.84,4.075-4.361,6.077c-1.525,2.002-3.123,3.836-4.791,5.506c-1.668,1.667-3.268,2.931-4.789,3.79
			c-3.434,1.81-6.105,0.476-8.008-4.004c-0.383-0.668-0.623-1.336-0.717-2.002l-0.717-1.001l-7.293,1.286
			c-2.857,0-4.955-0.809-6.291-2.431c-1.334-1.62-2.002-3.646-2.002-6.077c0-2.431,0.598-5.077,1.787-7.937
			c1.193-2.86,2.814-5.528,4.861-8.008c2.049-2.479,4.457-4.599,7.223-6.363c2.764-1.763,5.768-2.789,9.008-3.075
			c1.434,0,2.861,0.621,4.291,1.859c1.334,1.05,2.191,2.67,2.574,4.861c0.379,2.194,0.189,4.29-0.572,6.292
			c-0.383,0.954-0.906,1.431-1.57,1.431c-0.193,0.096-0.432-0.047-0.717-0.43c-0.285-0.38-0.523-0.762-0.717-1.144
			c-0.189-0.19-0.285-0.5-0.285-0.93s-0.049-0.833-0.143-1.216c-0.096-0.857-0.357-1.477-0.787-1.858
			c-0.43-0.38-0.883-0.572-1.357-0.572c-0.668,0.096-1.338,0.192-2.004,0.286c-0.668,0.096-1.285,0.335-1.855,0.715
			c-4.672,2.767-8.344,7.246-11.012,13.442c-0.191,0.478-0.357,1.024-0.5,1.645c-0.145,0.621-0.313,1.215-0.502,1.787
			c-0.191,0.668-0.145,1.313,0.145,1.931c0.285,0.621,0.619,0.836,1,0.645c1.811-0.666,3.551-1.43,5.221-2.288
			c1.666-0.858,3.168-2.382,4.504-4.576c1.049-1.716,2.191-3.097,3.434-4.146c0.762-0.763,1.596-1.191,2.502-1.287
			c0.906-0.094,1.789,0.096,2.646,0.572c0.479,0.285,0.811,0.857,1,1.716c0.191,0.857,0.096,1.572-0.283,2.145
			c-0.48,0.765-0.932,1.479-1.359,2.146c-0.428,0.668-0.881,1.383-1.357,2.145c-0.764,1.336-1.453,2.695-2.072,4.076
			C453.857,102.866,453.498,104.654,453.404,106.846z"/>
		<path fill="#FFFFFF" d="M469.492,108.441c-0.343-3.891-0.517-7.61-0.517-11.159c-0.112-6.637,0.943-12.188,3.178-16.651
			c2.229-4.464,5.348-7.324,9.355-8.584c1.142-0.456,2.288-0.626,3.43-0.515c1.145,0.114,2.289,0.631,3.436,1.545
			c1.029,0.917,1.772,2.031,2.231,3.349c0.455,1.316,0.57,2.948,0.341,4.892c-0.228,2.746-0.917,5.093-2.062,7.038
			c-1.145,1.947-2.689,3.836-4.631,5.666c0.57-1.945,1.083-3.547,1.543-4.809c0.457-1.258,0.8-2.516,1.029-3.775
			c0.112-0.571,0.141-1.258,0.084-2.061c-0.059-0.799-0.199-1.486-0.429-2.06c-0.457-0.915-0.973-1.315-1.545-1.201
			s-1.145,0.458-1.717,1.029c-0.916,0.916-1.604,1.947-2.059,3.09c-2.29,5.724-3.205,12.248-2.748,19.57
			c6.294-1.717,11.759-4.661,16.395-8.841c4.633-4.176,8.781-8.781,12.443-13.819c0.345,0.802,0.4,1.403,0.176,1.802
			c-0.232,0.402-0.46,0.832-0.687,1.288c-1.374,3.434-3.149,6.497-5.323,9.185c-2.176,2.689-4.549,5.064-7.125,7.124
			c-2.577,2.06-5.233,3.862-7.981,5.407c-2.746,1.545-5.438,2.832-8.07,3.862c-0.115,1.604-0.172,3.149-0.172,4.636
			s-0.114,3.032-0.345,4.636c-0.687,7.78-3.031,13.846-7.038,18.196c-1.14,1.143-2.316,1.975-3.518,2.488
			c-1.202,0.515-2.49,0.543-3.864,0.087c-1.943-0.574-3.404-1.976-4.377-4.205c-0.971-2.232-1.285-4.837-0.945-7.812
			c0.345-2.634,0.922-5.037,1.722-7.211c0.802-2.175,1.945-4.063,3.43-5.665c0.919-1.146,1.888-2.201,2.922-3.176
			C467.088,110.816,468.232,109.699,469.492,108.441z M462.797,131.615c1.026-1.373,1.885-2.489,2.574-3.349
			c0.688-0.858,1.231-1.689,1.632-2.489c0.401-0.802,0.746-1.629,1.027-2.488c0.288-0.859,0.6-1.918,0.944-3.178
			c0.115-0.573,0.146-1.229,0.085-1.974c-0.057-0.746-0.085-1.52-0.085-2.318c-3.317,2.747-5.406,5.207-6.267,7.383
			C461.852,125.376,461.88,128.18,462.797,131.615z"/>
	</g>
	<g>
		<path fill="#FFFFFF" d="M42.626,133.207v2.727h-7.072v-2.727H42.626z"/>
		<path fill="#FFFFFF" d="M50.674,123.734c1.511-0.271,3.482-0.405,5.533-0.405c3.482,0,5.75,0.566,7.477,1.89
			c1.89,1.403,3.077,3.671,3.077,6.91c0,3.481-1.269,5.885-2.996,7.369c-1.917,1.593-4.859,2.348-8.422,2.348
			c-2.132,0-3.671-0.135-4.669-0.27V123.734z M54.777,138.552c0.351,0.081,0.945,0.081,1.431,0.081
			c3.752,0.027,6.208-2.024,6.208-6.37c0-3.914-2.213-5.776-5.776-5.776c-0.891,0-1.512,0.081-1.863,0.162V138.552z"/>
		<path fill="#FFFFFF" d="M72.489,136.339c0.135,1.728,1.809,2.537,3.725,2.537c1.403,0,2.537-0.188,3.644-0.566l0.54,2.78
			c-1.35,0.566-2.996,0.836-4.777,0.836c-4.481,0-7.045-2.591-7.045-6.748c0-3.347,2.105-7.045,6.667-7.045
			c4.265,0,5.884,3.32,5.884,6.586c0,0.702-0.081,1.323-0.135,1.646L72.489,136.339z M77.321,133.531
			c0-0.972-0.432-2.672-2.294-2.672c-1.755,0-2.457,1.593-2.564,2.672H77.321z M79.588,122.762l-3.293,4.103h-2.808l2.322-4.103
			H79.588z"/>
		<path fill="#FFFFFF" d="M86.637,128.457l1.781,6.127c0.324,1.106,0.54,2.159,0.756,3.212h0.081
			c0.216-1.079,0.432-2.078,0.729-3.212l1.701-6.127h4.319l-4.913,13.199h-4.103l-4.805-13.199H86.637z"/>
		<path fill="#FFFFFF" d="M100.542,136.339c0.135,1.728,1.809,2.537,3.725,2.537c1.404,0,2.537-0.188,3.644-0.566l0.54,2.78
			c-1.35,0.566-2.996,0.836-4.777,0.836c-4.481,0-7.045-2.591-7.045-6.748c0-3.347,2.105-7.045,6.667-7.045
			c4.265,0,5.884,3.32,5.884,6.586c0,0.702-0.081,1.323-0.135,1.646L100.542,136.339z M105.374,133.531
			c0-0.972-0.432-2.672-2.294-2.672c-1.754,0-2.456,1.593-2.564,2.672H105.374z"/>
		<path fill="#FFFFFF" d="M111.64,122.491h4.103v19.165h-4.103V122.491z"/>
		<path fill="#FFFFFF" d="M125.111,141.953c-3.86,0-6.829-2.537-6.829-6.802c0-4.266,2.808-6.991,7.072-6.991
			c4.022,0,6.721,2.78,6.721,6.774c0,4.806-3.428,7.019-6.937,7.019H125.111z M125.192,139.011c1.62,0,2.619-1.593,2.619-3.968
			c0-1.943-0.756-3.94-2.619-3.94c-1.943,0-2.699,1.997-2.699,3.968c0,2.24,0.945,3.94,2.672,3.94H125.192z"/>
		<path fill="#FFFFFF" d="M134.617,132.884c0-1.728-0.054-3.186-0.108-4.427h3.563l0.189,1.835h0.054
			c0.972-1.376,2.483-2.132,4.4-2.132c2.888,0,5.479,2.51,5.479,6.721c0,4.805-3.05,7.072-5.993,7.072
			c-1.592,0-2.834-0.647-3.428-1.512h-0.054v6.56h-4.103V132.884z M138.72,135.988c0,0.324,0.027,0.595,0.081,0.864
			c0.27,1.106,1.214,1.943,2.402,1.943c1.781,0,2.834-1.484,2.834-3.725c0-2.105-0.945-3.698-2.78-3.698
			c-1.161,0-2.186,0.863-2.456,2.078c-0.054,0.216-0.081,0.486-0.081,0.729V135.988z"/>
		<path fill="#FFFFFF" d="M150.763,132.884c0-1.728-0.054-3.186-0.108-4.427h3.563l0.189,1.835h0.054
			c0.972-1.376,2.483-2.132,4.4-2.132c2.888,0,5.479,2.51,5.479,6.721c0,4.805-3.05,7.072-5.993,7.072
			c-1.592,0-2.834-0.647-3.428-1.512h-0.054v6.56h-4.103V132.884z M154.866,135.988c0,0.324,0.027,0.595,0.081,0.864
			c0.27,1.106,1.214,1.943,2.402,1.943c1.781,0,2.834-1.484,2.834-3.725c0-2.105-0.945-3.698-2.78-3.698
			c-1.161,0-2.186,0.863-2.456,2.078c-0.054,0.216-0.081,0.486-0.081,0.729V135.988z"/>
		<path fill="#FFFFFF" d="M170.147,136.339c0.135,1.728,1.809,2.537,3.725,2.537c1.403,0,2.537-0.188,3.644-0.566l0.54,2.78
			c-1.35,0.566-2.996,0.836-4.777,0.836c-4.481,0-7.045-2.591-7.045-6.748c0-3.347,2.105-7.045,6.667-7.045
			c4.265,0,5.884,3.32,5.884,6.586c0,0.702-0.081,1.323-0.135,1.646L170.147,136.339z M174.979,133.531
			c0-0.972-0.432-2.672-2.294-2.672c-1.755,0-2.457,1.593-2.564,2.672H174.979z"/>
		<path fill="#FFFFFF" d="M193.689,137.418c0,1.728,0.054,3.132,0.108,4.238h-3.563l-0.189-1.862h-0.081
			c-0.513,0.81-1.754,2.159-4.13,2.159c-2.699,0-4.643-1.674-4.643-5.749v-7.747h4.103v7.099c0,1.917,0.621,3.077,2.079,3.077
			c1.134,0,1.809-0.782,2.051-1.431c0.108-0.242,0.162-0.54,0.162-0.891v-7.854h4.103V137.418z"/>
		<path fill="#FFFFFF" d="M197.013,132.803c0-1.943-0.027-3.212-0.108-4.346h3.509l0.162,2.456h0.108
			c0.675-1.943,2.267-2.753,3.563-2.753c0.378,0,0.567,0.026,0.864,0.081v3.859c-0.351-0.054-0.675-0.107-1.134-0.107
			c-1.512,0-2.537,0.782-2.807,2.078c-0.054,0.27-0.081,0.566-0.081,0.918v6.667h-4.103L197.013,132.803z"/>
		<path fill="#FFFFFF" d="M210,144.221c1.053-0.081,1.917-0.324,2.429-0.864c0.594-0.62,0.81-1.673,0.81-4.292v-10.607h4.103v11.606
			c0,2.861-0.621,4.616-1.863,5.75c-1.215,1.106-3.131,1.619-5.075,1.619L210,144.221z M215.237,126.73
			c-1.377,0-2.268-0.972-2.268-2.187c0-1.242,0.918-2.187,2.321-2.187c1.404,0,2.268,0.944,2.294,2.187
			c0,1.215-0.891,2.187-2.321,2.187H215.237z"/>
		<path fill="#FFFFFF" d="M233,137.418c0,1.728,0.055,3.132,0.108,4.238h-3.563l-0.188-1.862h-0.081
			c-0.513,0.81-1.754,2.159-4.13,2.159c-2.699,0-4.643-1.674-4.643-5.749v-7.747h4.103v7.099c0,1.917,0.621,3.077,2.079,3.077
			c1.134,0,1.809-0.782,2.051-1.431c0.108-0.242,0.162-0.54,0.162-0.891v-7.854H233V137.418z"/>
		<path fill="#FFFFFF" d="M236.296,132.668c0-1.646-0.053-3.023-0.107-4.211h3.563l0.189,1.835h0.081
			c0.54-0.863,1.862-2.132,4.075-2.132c2.7,0,4.725,1.809,4.725,5.695v7.801h-4.104v-7.315c0-1.7-0.594-2.861-2.078-2.861
			c-1.134,0-1.809,0.783-2.105,1.539c-0.107,0.27-0.135,0.647-0.135,1.025v7.612h-4.104V132.668z"/>
		<path fill="#FFFFFF" d="M254.144,126.73c-1.377,0-2.268-0.972-2.268-2.187c0-1.242,0.918-2.187,2.321-2.187
			s2.268,0.944,2.294,2.187c0,1.215-0.891,2.187-2.321,2.187H254.144z M252.12,141.656v-13.199h4.103v13.199H252.12z"/>
		<path fill="#FFFFFF" d="M265.589,141.953c-3.859,0-6.829-2.537-6.829-6.802c0-4.266,2.808-6.991,7.072-6.991
			c4.021,0,6.721,2.78,6.721,6.774c0,4.806-3.428,7.019-6.937,7.019H265.589z M265.67,139.011c1.62,0,2.618-1.593,2.618-3.968
			c0-1.943-0.756-3.94-2.618-3.94c-1.943,0-2.699,1.997-2.699,3.968c0,2.24,0.945,3.94,2.672,3.94H265.67z"/>
		<path fill="#FFFFFF" d="M275.123,132.803c0-1.943-0.027-3.212-0.108-4.346h3.509l0.162,2.456h0.108
			c0.675-1.943,2.268-2.753,3.563-2.753c0.378,0,0.567,0.026,0.864,0.081v3.859c-0.351-0.054-0.675-0.107-1.134-0.107
			c-1.512,0-2.537,0.782-2.808,2.078c-0.054,0.27-0.081,0.566-0.081,0.918v6.667h-4.103L275.123,132.803z"/>
		<path fill="#FFFFFF" d="M297.044,133.207v2.727h-7.072v-2.727H297.044z"/>
		<path fill="#FFFFFF" d="M320.289,140.82c-1.269,0.432-3.671,1.025-6.073,1.025c-3.32,0-5.723-0.836-7.396-2.429
			c-1.646-1.593-2.564-3.968-2.564-6.641c0.027-6.046,4.427-9.501,10.393-9.501c2.349,0,4.157,0.459,5.048,0.863l-0.864,3.32
			c-0.998-0.459-2.213-0.783-4.211-0.783c-3.428,0-6.046,1.944-6.046,5.885c0,3.779,2.375,5.966,5.749,5.966
			c0.918,0,1.674-0.108,1.998-0.243v-3.833h-2.808v-3.212h6.775V140.82z"/>
		<path fill="#FFFFFF" d="M323.479,132.803c0-1.943-0.027-3.212-0.108-4.346h3.509l0.162,2.456h0.108
			c0.675-1.943,2.268-2.753,3.563-2.753c0.378,0,0.567,0.026,0.864,0.081v3.859c-0.351-0.054-0.675-0.107-1.134-0.107
			c-1.512,0-2.537,0.782-2.808,2.078c-0.054,0.27-0.081,0.566-0.081,0.918v6.667h-4.103L323.479,132.803z"/>
		<path fill="#FFFFFF" d="M344.401,138.471c0,1.242,0.054,2.457,0.216,3.186h-3.698l-0.243-1.322h-0.081
			c-0.863,1.053-2.213,1.619-3.778,1.619c-2.673,0-4.265-1.943-4.265-4.049c0-3.428,3.077-5.048,7.746-5.048v-0.162
			c0-0.701-0.378-1.7-2.402-1.7c-1.35,0-2.78,0.459-3.644,0.972l-0.756-2.618c0.918-0.513,2.727-1.188,5.129-1.188
			c4.399,0,5.776,2.591,5.776,5.695V138.471z M340.433,135.421c-2.16,0-3.833,0.513-3.833,2.078c0,1.053,0.701,1.565,1.619,1.565
			c0.999,0,1.862-0.675,2.133-1.511c0.054-0.216,0.081-0.459,0.081-0.702V135.421z"/>
		<path fill="#FFFFFF" d="M347.67,132.884c0-1.728-0.054-3.186-0.107-4.427h3.563l0.189,1.835h0.054
			c0.972-1.376,2.483-2.132,4.399-2.132c2.889,0,5.479,2.51,5.479,6.721c0,4.805-3.05,7.072-5.992,7.072
			c-1.593,0-2.834-0.647-3.428-1.512h-0.055v6.56h-4.103V132.884z M351.773,135.988c0,0.324,0.027,0.595,0.081,0.864
			c0.271,1.106,1.215,1.943,2.402,1.943c1.782,0,2.835-1.484,2.835-3.725c0-2.105-0.945-3.698-2.78-3.698
			c-1.161,0-2.187,0.863-2.457,2.078c-0.054,0.216-0.081,0.486-0.081,0.729V135.988z"/>
		<path fill="#FFFFFF" d="M363.816,122.491h4.103v7.559h0.055c0.432-0.595,0.972-1.053,1.619-1.377
			c0.621-0.324,1.377-0.513,2.133-0.513c2.618,0,4.615,1.809,4.615,5.803v7.693h-4.103v-7.261c0-1.728-0.594-2.916-2.133-2.916
			c-1.079,0-1.754,0.702-2.051,1.458c-0.108,0.243-0.136,0.594-0.136,0.891v7.828h-4.103V122.491z"/>
		<path fill="#FFFFFF" d="M381.663,126.73c-1.377,0-2.268-0.972-2.268-2.187c0-1.242,0.918-2.187,2.321-2.187
			c1.404,0,2.268,0.944,2.295,2.187c0,1.215-0.891,2.187-2.321,2.187H381.663z M379.638,141.656v-13.199h4.103v13.199H379.638z"/>
		<path fill="#FFFFFF" d="M387.008,138.093c0.756,0.459,2.322,0.972,3.536,0.972c1.242,0,1.755-0.404,1.755-1.079
			c0-0.702-0.405-1.025-1.916-1.539c-2.754-0.891-3.807-2.402-3.779-3.94c0-2.483,2.105-4.346,5.371-4.346
			c1.539,0,2.889,0.378,3.698,0.782l-0.702,2.808c-0.594-0.297-1.754-0.729-2.86-0.729c-0.999,0-1.566,0.404-1.566,1.053
			c0,0.647,0.514,0.972,2.133,1.538c2.511,0.837,3.536,2.133,3.563,4.049c0,2.483-1.917,4.292-5.696,4.292
			c-1.728,0-3.266-0.405-4.265-0.944L387.008,138.093z"/>
		<path fill="#FFFFFF" d="M403.342,124.867v3.59h2.942v3.022h-2.942v4.806c0,1.592,0.405,2.321,1.619,2.321
			c0.567,0,0.837-0.027,1.215-0.108l0.027,3.104c-0.513,0.188-1.512,0.351-2.646,0.351c-1.322,0-2.43-0.459-3.104-1.134
			c-0.756-0.782-1.133-2.052-1.133-3.914v-5.426h-1.755v-3.022h1.755v-2.483L403.342,124.867z"/>
		<path fill="#FFFFFF" d="M411.686,136.339c0.135,1.728,1.809,2.537,3.725,2.537c1.404,0,2.538-0.188,3.645-0.566l0.54,2.78
			c-1.35,0.566-2.996,0.836-4.778,0.836c-4.48,0-7.045-2.591-7.045-6.748c0-3.347,2.105-7.045,6.667-7.045
			c4.266,0,5.885,3.32,5.885,6.586c0,0.702-0.081,1.323-0.135,1.646L411.686,136.339z M416.518,133.531
			c0-0.972-0.433-2.672-2.295-2.672c-1.754,0-2.456,1.593-2.564,2.672H416.518z"/>
		<path fill="#FFFFFF" d="M434.473,133.207v2.727h-7.072v-2.727H434.473z"/>
	</g>
</g>
<g id="Calque_2" display="none">
	<path display="inline" fill="#FFFFFF" d="M15.256,48.815c-2.002,0.954-3.839,1.073-5.506,0.358
		c-1.669-0.715-3.217-1.739-4.647-3.075c-3.052-2.859-4.146-6.148-3.289-9.867c0.381-1.522,0.931-2.979,1.646-4.36
		c0.715-1.381,1.596-2.692,2.646-3.934c2.86-2.859,6.196-5.385,10.011-7.578c5.242-2.86,10.699-5.195,16.374-7.008
		c5.671-1.81,11.511-3.383,17.518-4.719c4.004-0.762,8.03-1.477,12.083-2.145c4.051-0.666,8.079-1.145,12.083-1.431
		c1.62-0.189,3.025-0.476,4.218-0.857c1.191-0.38,2.218-1.096,3.075-2.146c0.286-0.286,0.619-0.5,1.001-0.644
		c0.38-0.144,0.666-0.309,0.858-0.5c0.094,0.096,0.286,0.143,0.571,0.143h0.286l0.715,3.146c0.666,0.096,1.238,0.143,1.717,0.143
		c0.476,0,0.952,0,1.43,0l32.461,2.002c1.62,0.192,3.24,0.43,4.862,0.715c1.62,0.286,3.24,0.812,4.861,1.573
		c0.666,0.382,1.287,0.786,1.859,1.215c0.572,0.43,0.858,1.025,0.858,1.788c0.094,1.24-0.954,2.146-3.146,2.717
		c-1.336,0.286-2.67,0.551-4.004,0.787c-1.336,0.239-2.767,0.024-4.29-0.644c-0.764-0.38-1.573-0.547-2.431-0.5
		c-0.858,0.049-1.766-0.022-2.717-0.214c-2.385-0.19-5.197-0.357-8.438-0.5c-3.242-0.144-6.603-0.263-10.082-0.357
		c-3.48-0.094-6.889-0.166-10.225-0.215c-3.338-0.047-6.198-0.071-8.58-0.071c-2.574,3.146-4.862,6.459-6.864,9.938
		c-2.002,3.48-4.1,6.889-6.292,10.225c-2.098,3.338-4.219,6.674-6.364,10.01c-2.145,3.339-4.125,6.675-5.935,10.011
		c0.38,0.764,0.857,1.122,1.43,1.071c0.572-0.047,1.095-0.07,1.573-0.07c3.05,0,6.053,0.049,9.009,0.143
		c2.954,0.096,5.91,0.429,8.866,1.001c0.858,0.192,1.691,0.357,2.503,0.5c0.809,0.144,1.548,0.312,2.216,0.5
		c0.858,0.286,1.43,0.739,1.716,1.358c0.286,0.621,0.333,1.312,0.144,2.072c-0.765,1.24-1.622,2.194-2.574,2.86
		c-0.954,0.668-2.145,1.001-3.575,1.001c-1.144,0-2.288-0.094-3.432-0.286c-1.145-0.189-2.337-0.333-3.575-0.429
		c-2.384-0.286-4.744-0.521-7.079-0.715c-2.337-0.19-4.744-0.429-7.222-0.715h-5.005c-1.336,2.573-2.695,5.125-4.076,7.649
		c-1.383,2.527-2.694,5.125-3.932,7.793c-1.813,4.004-3.601,8.058-5.363,12.155c-1.766,4.1-3.503,8.2-5.219,12.298
		c-0.954,2.002-1.838,4.026-2.646,6.078c-0.811,2.049-1.645,4.122-2.502,6.22c-0.382,0.572-0.787,1.191-1.216,1.859
		c-0.429,0.666-0.882,1.238-1.358,1.716c-0.286,0.38-0.74,0.594-1.357,0.645c-0.621,0.047-1.168-0.025-1.646-0.216
		c-0.286-0.285-0.597-0.62-0.93-1.001c-0.335-0.382-0.549-0.764-0.645-1.144c0.19-1.05,0.31-2.098,0.358-3.146
		c0.047-1.05,0.214-2.098,0.5-3.146c1.048-3.052,2.049-6.1,3.003-9.152c0.952-3.05,1.953-6.1,3.003-9.151
		c1.716-4.48,3.454-8.842,5.219-13.084c1.764-4.241,3.79-8.459,6.078-12.656c0.19-0.477,0.333-0.929,0.43-1.358
		c0.094-0.429,0.236-0.88,0.429-1.357c-0.479-0.666-1.05-1.001-1.716-1.001c-0.668,0-1.24,0.049-1.717,0.143
		c-7.915,0.764-15.492,2.098-22.736,4.004c-0.572,0.192-1.24,0.43-2.002,0.715c-0.765,0.286-1.622,0.239-2.574-0.143
		c0.188-0.286,0.333-0.572,0.429-0.858c0.095-0.286,0.237-0.476,0.43-0.571c1.619-0.763,3.239-1.478,4.861-2.146
		c1.62-0.666,3.336-1.287,5.148-1.858c3.525-1.049,7.028-1.953,10.511-2.718c3.479-0.762,7.125-1.381,10.939-1.858
		c0.189-0.095,0.476-0.19,0.857-0.286c0.38-0.094,0.858-0.19,1.43-0.286c0.477-0.952,0.977-1.93,1.502-2.931
		c0.521-1.001,1.118-1.979,1.786-2.933c0.477-1.144,1.049-2.238,1.717-3.289c0.666-1.048,1.286-2.096,1.858-3.146
		c0.572-1.048,1.191-2.024,1.859-2.933c0.666-0.904,1.334-1.881,2.002-2.931c0.666-1.048,1.31-2.074,1.931-3.075
		c0.619-1.001,1.311-2.023,2.074-3.074c0.762-0.952,1.477-1.882,2.145-2.788c0.666-0.905,1.333-1.834,2.003-2.789
		c0.762-0.952,1.548-1.881,2.358-2.789c0.81-0.905,1.595-1.881,2.359-2.933c0.762-0.857,1.523-1.737,2.288-2.646
		c0.762-0.905,1.43-1.93,2.002-3.074c-0.479-0.094-0.858-0.166-1.145-0.215c-0.286-0.047-0.524-0.071-0.715-0.071
		c-8.486,0.765-16.756,2.002-24.811,3.718c-8.058,1.717-15.754,4.529-23.096,8.438c-1.622,0.764-3.146,1.645-4.575,2.646
		c-1.431,1.001-2.813,2.123-4.147,3.361c-0.382,0.479-0.811,0.954-1.287,1.43c-0.478,0.479-0.857,0.954-1.144,1.431
		c-1.622,2.288-2.146,4.481-1.573,6.578c0.572,2.098,2.145,3.909,4.719,5.434c0.762,0.479,1.548,0.883,2.359,1.216
		C13.848,48.221,14.588,48.531,15.256,48.815z"/>
	<path display="inline" fill="#FFFFFF" d="M86.04,88.427l-2.146-0.429c-2.098-0.477-3.669-1.881-4.719-4.218
		c-1.048-2.335-1.334-5.077-0.857-8.224c0.571-4.193,2.002-7.436,4.29-9.724c1.905-1.906,3.432-2.002,4.575-0.286
		c1.334,1.716,1.717,4.004,1.145,6.864c-0.382,1.43-0.882,3.242-1.501,5.434c-0.621,2.194-1.168,3.957-1.646,5.291
		c0.286,0.668,0.572,0.954,0.858,0.858c0.286-0.094,0.572-0.237,0.857-0.43c1.62-1.619,3.025-3.383,4.219-5.29
		c1.19-1.906,2.691-3.525,4.504-4.862c0.762-0.572,1.477-0.645,2.145-0.214c0.666,0.429,1.191,1.215,1.573,2.358
		c0.476,1.622,0.715,3.195,0.715,4.72c0,1.525-0.382,3.052-1.144,4.575c-1.526,1.051-2.837,2.409-3.933,4.076
		c-1.097,1.669-1.931,3.457-2.503,5.362c-0.571,1.908-0.906,3.79-1.001,5.647c-0.096,1.859,0.095,3.504,0.572,4.935
		c0.286,1.523,0.905,2.217,1.859,2.074c0.951-0.144,2.121-0.765,3.503-1.859c1.381-1.095,2.859-2.574,4.433-4.433
		c1.573-1.859,3.122-3.766,4.647-5.721c1.523-1.953,2.906-3.812,4.146-5.576c1.238-1.764,2.239-3.169,3.003-4.219
		c0.286-0.38,0.595-0.88,0.931-1.501c0.333-0.619,0.88-0.736,1.645-0.356c-0.192,0.571-0.382,1.122-0.572,1.645
		c-0.191,0.525-0.382,1.025-0.571,1.501c-1.431,2.86-2.718,5.34-3.861,7.437c-1.145,2.098-2.288,4.027-3.433,5.792
		c-1.144,1.765-2.431,3.432-3.86,5.005c-1.429,1.573-3.195,3.264-5.291,5.077c-0.764,0.666-1.573,1.262-2.431,1.787
		c-0.858,0.522-1.717,0.88-2.574,1.072c-1.431,0.38-2.788,0.262-4.075-0.356c-1.287-0.621-2.36-1.599-3.218-2.933
		c-0.858-1.336-1.479-2.979-1.859-4.934c-0.382-1.953-0.429-4.026-0.143-6.22c0.189-1.62,0.451-3.219,0.787-4.791
		C85.444,91.787,85.754,90.142,86.04,88.427z"/>
	<path display="inline" fill="#FFFFFF" d="M127.223,105.729c0.572,0,1.096,0.048,1.573,0.144c0.476,0.094,0.905,0,1.287-0.286
		c1.334-1.144,2.739-2.478,4.218-4.004c1.478-1.524,2.933-3.146,4.361-4.862c1.43-1.716,2.789-3.383,4.076-5.005
		c1.287-1.62,2.454-3.05,3.503-4.29c0.286-0.38,0.594-0.689,0.93-0.93c0.333-0.237,0.645-0.451,0.93-0.645
		c0.477,0.858,0.644,1.599,0.5,2.218c-0.143,0.62-0.357,1.168-0.644,1.645c-1.145,1.716-2.409,3.599-3.79,5.648
		c-1.383,2.051-2.838,4.074-4.362,6.076c-1.525,2.002-3.124,3.837-4.791,5.507c-1.669,1.667-3.267,2.931-4.79,3.79
		c-3.432,1.81-6.103,0.476-8.008-4.005c-0.382-0.668-0.621-1.336-0.715-2.002l-0.715-1.001l-7.293,1.287
		c-2.86,0-4.956-0.809-6.292-2.431c-1.333-1.62-2.002-3.646-2.002-6.077s0.597-5.077,1.788-7.937
		c1.192-2.86,2.813-5.528,4.861-8.009c2.05-2.478,4.456-4.598,7.223-6.362c2.764-1.764,5.767-2.789,9.009-3.075
		c1.43,0,2.86,0.621,4.29,1.858c1.334,1.051,2.191,2.671,2.574,4.862c0.38,2.194,0.189,4.29-0.572,6.292
		c-0.382,0.954-0.907,1.431-1.573,1.431c-0.191,0.096-0.429-0.048-0.715-0.43c-0.286-0.38-0.525-0.762-0.715-1.144
		c-0.192-0.19-0.286-0.5-0.286-0.931c0-0.429-0.049-0.833-0.143-1.215c-0.097-0.857-0.357-1.477-0.787-1.858
		c-0.43-0.38-0.883-0.572-1.358-0.572c-0.668,0.096-1.336,0.192-2.002,0.286c-0.668,0.096-1.287,0.335-1.859,0.715
		c-4.672,2.766-8.343,7.246-11.011,13.442c-0.191,0.478-0.356,1.024-0.5,1.645c-0.143,0.621-0.311,1.215-0.5,1.787
		c-0.191,0.668-0.143,1.312,0.144,1.931c0.285,0.621,0.618,0.835,1.001,0.645c1.81-0.666,3.55-1.431,5.219-2.288
		c1.667-0.858,3.168-2.382,4.505-4.576c1.048-1.716,2.192-3.097,3.432-4.146c0.763-0.763,1.597-1.191,2.502-1.287
		c0.905-0.095,1.788,0.096,2.646,0.571c0.476,0.286,0.809,0.858,1.001,1.717c0.188,0.857,0.094,1.572-0.286,2.145
		c-0.478,0.764-0.93,1.479-1.358,2.146c-0.429,0.668-0.883,1.383-1.358,2.145c-0.764,1.336-1.455,2.695-2.073,4.076
		C127.675,101.75,127.318,103.537,127.223,105.729z"/>
	<path display="inline" fill="#FFFFFF" d="M163.831,80.704l-6.006,7.007c-1.908,2.288-3.742,4.672-5.505,7.15
		c-1.766,2.479-3.218,5.434-4.361,8.865c-1.526,4.004-3.289,5.291-5.291,3.861c-1.716-1.144-2.049-3.812-1.001-8.008
		c1.336-4.767,2.909-9.295,4.719-13.585c1.811-4.29,3.955-8.245,6.436-11.869c0.951-1.333,2.002-2.002,3.146-2.002
		c1.048-0.094,1.811,0.5,2.288,1.788c0.476,1.287,0.523,2.789,0.143,4.504c-0.096,0.479-0.215,0.93-0.356,1.359
		c-0.144,0.429-0.312,0.882-0.5,1.357c0.666,0.479,1.119,0.479,1.358,0c0.236-0.476,0.547-0.857,0.929-1.144
		c1.523-1.334,3.003-2.668,4.433-4.004c1.431-1.334,2.907-2.574,4.434-3.719c0.857-0.666,1.737-1.095,2.646-1.287
		c0.905-0.189,1.738,0.286,2.502,1.431c0.762,1.24,0.952,2.526,0.572,3.86c-0.382,1.336-0.813,2.624-1.287,3.861
		c-1.05,2.766-2.098,5.505-3.146,8.222c-1.05,2.718-2.098,5.459-3.146,8.224c-0.764,2.288-1.383,4.386-1.859,6.292
		c-0.479,1.908-0.812,3.955-1.001,6.148c2.288-1.05,4.337-2.216,6.149-3.503c1.81-1.287,3.503-2.717,5.076-4.29
		c1.572-1.572,3.122-3.336,4.646-5.291c1.524-1.953,3.24-4.123,5.148-6.506c0.094,0.858,0.094,1.43,0,1.716
		c-2.099,4.862-4.625,8.866-7.579,12.013c-2.956,3.146-6.006,6.053-9.152,8.723c-1.43,1.144-2.859,2.002-4.29,2.574
		c-1.622,0.762-3.073,0.429-4.36-1.001c-1.287-1.431-1.979-3.433-2.073-6.006c-0.096-2.194,0.071-4.313,0.5-6.364
		c0.429-2.049,1.022-4.122,1.787-6.22c0.38-1.145,0.762-2.288,1.144-3.433c0.38-1.144,0.81-2.288,1.287-3.432l2.288-6.006
		C164.45,81.705,164.211,81.278,163.831,80.704z"/>
	<path display="inline" fill="#FFFFFF" d="M191.859,80.704l4.861-5.005c1.145-1.048,2.311-1.979,3.503-2.789
		c1.191-0.81,2.454-1.311,3.79-1.501c1.906-0.19,3.383,0.5,4.434,2.072c1.049,1.573,1.523,3.79,1.43,6.65
		c-0.096,2.86-0.764,5.387-2.002,7.579c-1.525,2.67-3.241,4.625-5.147,5.863c-1.907,1.239-4.053,2.623-6.435,4.146
		c0.38,1.145,1.048,2.241,2.002,3.289c0.952,1.05,1.716,1.669,2.288,1.859c1.334,1.336,2.789,1.837,4.362,1.501
		c1.572-0.333,3.192-1.145,4.861-2.432c1.667-1.286,3.336-2.953,5.005-5.005c1.667-2.049,3.24-4.123,4.721-6.22
		c1.477-2.096,2.811-4.098,4.004-6.006c1.189-1.906,2.166-3.383,2.932-4.433c0.666-0.952,1.381-1.811,2.146-2.574
		c0.476,0.764,0.666,1.408,0.57,1.931c-0.096,0.525-0.238,1.072-0.429,1.646c-2.384,5.529-5.125,10.438-8.222,14.729
		c-3.101,4.29-6.459,8.104-10.082,11.44c-3.528,3.146-6.96,4.146-10.296,3.003c-3.338-1.145-6.389-4.004-9.152-8.58
		c-0.572-0.952-1.215-2.146-1.93-3.575s-1.408-2.764-2.074-4.004c-1.24,2.194-2.194,4.339-2.86,6.435
		c-0.668,2.099-1.858,4.004-3.575,5.721c-0.762,0.857-1.501,0.976-2.216,0.356c-0.715-0.621-1.12-1.693-1.215-3.218
		c0-5.624,0.907-11.129,2.717-16.516c1.811-5.386,3.669-10.604,5.577-15.659c2.288-5.148,4.408-9.914,6.363-14.3
		c1.953-4.385,3.883-8.413,5.792-12.083c1.906-3.67,3.79-6.982,5.647-9.938c1.859-2.954,3.838-5.577,5.936-7.865
		c1.049-1.048,2.097-1.788,3.146-2.216c1.049-0.429,2.192-0.309,3.434,0.357c0.476,0.191,0.832,0.668,1.072,1.43
		c0.235,0.764,0.262,1.479,0.07,2.145c-0.286,0.765-0.645,1.479-1.072,2.146c-0.43,0.668-0.836,1.336-1.216,2.002
		c-2.479,3.432-4.646,6.771-6.506,10.01c-1.858,3.242-3.625,6.557-5.291,9.938c-1.669,3.385-3.313,7.007-4.934,10.868
		c-1.622,3.86-3.385,8.128-5.291,12.798c-0.479,1.239-0.858,2.337-1.145,3.289L191.859,80.704z M205.445,77.701
		c-1.718-0.095-2.84-0.071-3.362,0.07c-0.525,0.144-1.265,0.598-2.216,1.359c-1.813,1.622-3.242,3.146-4.29,4.576
		c-1.05,1.43-1.955,3.242-2.717,5.434c1.619,0.668,3.073,0.525,4.36-0.429c1.287-0.952,2.549-1.953,3.79-3.003
		c0.952-0.858,1.881-1.834,2.789-2.931C204.704,81.683,205.251,79.99,205.445,77.701z"/>
	<path display="inline" fill="#FFFFFF" d="M311.833,17.355c-2.858,0.479-5.506,0.931-7.938,1.359
		c-2.43,0.429-4.84,0.835-7.221,1.215c-6.104,1.05-11.703,1.479-16.803,1.287c-5.103-0.189-10.131-1.523-15.086-4.004
		c-0.955-0.572-1.789-1.238-2.504-2.002c-0.715-0.762-1.168-1.716-1.357-2.86c0-0.286,0.021-0.619,0.07-1.001
		c0.047-0.38,0.072-0.762,0.072-1.144c0.188,0,0.403-0.022,0.645-0.071c0.234-0.047,0.402-0.021,0.5,0.071
		c1.906,2.002,4.337,3.289,7.293,3.861c2.953,0.571,5.624,0.764,8.008,0.571c6.672-0.286,13.107-1.001,19.305-2.145
		c6.198-1.145,12.348-2.239,18.447-3.289c2.002-0.38,3.861-0.905,5.576-1.573c1.717-0.666,3.24-1.763,4.576-3.289
		c0.666-0.762,1.404-1.381,2.217-1.858c0.809-0.477,1.596-1.001,2.359-1.573c0.477-0.19,0.977-0.144,1.502,0.143
		c0.521,0.286,0.834,0.765,0.93,1.431c-0.096,0.479-0.145,1.001-0.145,1.572c0,0.572,0,1.193,0,1.859
		c3.434,0.191,6.863,0.024,10.297-0.5c3.432-0.523,6.91-0.594,10.438-0.214c3.432,0.286,6.529,1.097,9.295,2.431
		c0.951,0.479,1.596,0.858,1.934,1.145c0.332,0.285,0.928,1.05,1.785,2.287c0,0.479-0.168,0.74-0.502,0.787
		c-0.334,0.05-0.596,0.072-0.783,0.072c-2.672-0.666-5.578-0.952-8.725-0.858c-3.146,0.097-6.342,0.336-9.582,0.716
		c-3.242,0.382-6.436,0.857-9.58,1.43c-3.146,0.572-6.006,1.001-8.58,1.287c-1.525,0.286-2.572,0.907-3.146,1.858
		c-4.101,5.53-8.033,11.394-11.798,17.59c-3.768,6.197-7.344,12.562-10.727,19.09c-3.386,6.53-6.529,13.084-9.438,19.663
		c-2.908,6.578-5.505,13.013-7.794,19.305c-0.479,1.336-0.979,2.742-1.5,4.219c-0.525,1.479-0.932,2.98-1.217,4.504
		c-0.285,1.526-0.406,3.053-0.356,4.576c0.047,1.524,0.356,2.907,0.931,4.147c1.618,3.622,3.859,4.526,6.721,2.717
		c2.19-1.622,3.979-3.457,5.361-5.505c1.381-2.049,2.407-4.241,3.075-6.578c0.664-2.335,1.047-4.741,1.144-7.221
		c0.095-2.479-0.049-4.909-0.428-7.293c-0.099-0.763,0-1.667,0.284-2.718c0-0.286,0.216-0.45,0.646-0.5
		c0.429-0.047,0.735,0.071,0.929,0.357l1.146,1.859c0.952,3.052,1.549,6.127,1.786,9.224c0.238,3.099-0.022,6.078-0.784,8.938
		c-0.767,2.86-2.052,5.528-3.861,8.009c-1.813,2.478-4.29,4.623-7.436,6.435c-2.289,1.334-4.576,1.646-6.865,0.93
		c-2.287-0.715-4.242-2.313-5.861-4.791c-1.432-2.479-2.408-5.076-2.934-7.793c-0.522-2.717-0.764-5.457-0.715-8.223
		c0.047-2.764,0.357-5.505,0.932-8.222c0.57-2.718,1.285-5.313,2.145-7.793c1.906-5.148,4.123-10.486,6.648-16.017
		c2.524-5.527,5.242-11.083,8.149-16.66c2.908-5.576,5.937-11.032,9.082-16.374S308.687,21.931,311.833,17.355z"/>
	<path display="inline" fill="#FFFFFF" d="M333.71,82.42c-2.098,1.336-3.909,2.767-5.434,4.29c-1.525,1.526-2.886,3.075-4.076,4.646
		c-1.192,1.573-2.313,3.124-3.359,4.647c-1.051,1.526-2.146,3.003-3.289,4.433c-0.954,1.145-1.885,2.218-2.788,3.219
		c-0.907,1.001-1.837,1.978-2.789,2.932c-0.666,0.572-1.31,0.547-1.931-0.072c-0.618-0.621-0.977-1.455-1.072-2.502
		c0-0.857,0-1.737,0-2.646c0-0.905,0.098-1.788,0.286-2.646c0.286-1.334,0.597-2.646,0.93-3.933c0.335-1.287,0.739-2.549,1.216-3.79
		c1.146-3.24,2.264-6.457,3.36-9.652c1.095-3.192,2.312-6.313,3.646-9.367c1.904-4.384,4.025-9.079,6.362-14.085
		c2.335-5.005,4.72-9.698,7.15-14.085c2.431-4.384,4.813-8.126,7.147-11.226c2.336-3.097,4.455-4.933,6.363-5.505
		c1.523,0,2.407,0.478,2.646,1.43c0.236,0.954,0.166,2.098-0.215,3.432c-0.383,1.337-0.953,2.671-1.717,4.005
		c-0.765,1.336-1.384,2.337-1.857,3.003c-2.194,3.432-3.981,6.362-5.362,8.794c-1.384,2.431-2.623,4.791-3.72,7.079
		c-1.098,2.288-2.215,4.743-3.359,7.363c-1.145,2.623-2.623,5.889-4.434,9.795c-1.049,2.194-2.072,4.72-3.073,7.579
		c-1.001,2.86-1.884,5.34-2.646,7.437c1.522-1.238,3.289-2.789,5.291-4.647c2.002-1.857,3.813-3.312,5.435-4.36
		c1.237-0.858,2.668-1.287,4.29-1.287c1.906,0.096,3.336,1.168,4.289,3.217c0.953,2.051,1.096,4.458,0.43,7.222
		c-0.286,1.145-0.645,2.267-1.072,3.36c-0.429,1.097-0.883,2.17-1.357,3.218l-3.86,8.866l-1.287,3.861
		c0.478,0.666,0.905,0.951,1.287,0.857c0.38-0.096,0.763-0.335,1.146-0.715c3.906-4.29,7.77-8.699,11.584-13.228
		c3.812-4.527,6.957-8.51,9.438-11.941c0,0.479,0,1.193,0,2.145c0,0.954-0.049,1.526-0.143,1.717
		c-3.338,5.434-6.746,10.345-10.227,14.729c-3.48,4.386-7.316,8.674-11.512,12.87c-0.668,0.666-1.357,1.287-2.073,1.859
		c-0.715,0.571-1.454,1.048-2.217,1.43c-1.908,0.858-3.481,0.429-4.72-1.287c-1.239-1.716-1.621-4.053-1.146-7.007
		c0.286-2.288,0.787-4.48,1.503-6.578c0.715-2.096,1.477-4.147,2.287-6.149s1.62-4.025,2.432-6.076
		C332.303,87.021,333.042,84.805,333.71,82.42z"/>
	<path display="inline" fill="#FFFFFF" d="M374.32,86.139c1.049,0.382,2.383,0.312,4.004-0.214c1.621-0.522,3.219-1.334,4.791-2.431
		c1.572-1.096,3.051-2.359,4.434-3.79c1.383-1.43,2.359-2.812,2.934-4.147c0.57,1.05,0.666,2.099,0.285,3.146
		c-0.383,1.05-0.766,1.812-1.145,2.288c-1.051,1.336-2.289,2.623-3.719,3.86c-1.43,1.24-2.932,2.359-4.506,3.36
		c-1.57,1.001-3.217,1.859-4.934,2.574s-3.338,1.122-4.861,1.215c-0.953,1.623-1.813,3.003-2.574,4.146
		c-0.764,1.145-1.5,2.171-2.217,3.075c-0.715,0.907-1.43,1.741-2.145,2.502c-0.715,0.765-1.551,1.573-2.504,2.432
		c-2.572,2.859-5.575,3.525-9.01,2.002c-2.287-1.051-3.883-3.051-4.789-6.006c-0.904-2.954-0.834-6.149,0.215-9.581
		c1.336-4.576,3.386-8.056,6.147-10.439c1.048-0.858,2.002-1.81,2.86-2.86c0.855-1.048,1.666-2.238,2.431-3.574
		c2.19-4.099,5.194-6.292,9.009-6.578c2.098,0,3.646,0.74,4.646,2.216c1.002,1.479,1.621,3.267,1.859,5.363
		c0.236,2.098,0.215,4.218-0.07,6.362C375.181,83.207,374.796,84.902,374.32,86.139z M359.164,88.571
		c-1.717,2.002-2.859,4.481-3.434,7.436c0,0.286,0,0.715,0,1.287s0.071,1.122,0.215,1.645c0.145,0.525,0.43,0.907,0.857,1.145
		c0.429,0.239,1.023,0.167,1.788-0.214c1.144-0.572,2.382-1.716,3.718-3.433c1.334-1.716,2.432-3.432,3.289-5.147
		c-1.716-0.19-3.027-0.523-3.934-1.001C360.759,89.809,359.926,89.239,359.164,88.571z M367.457,73.698
		c-0.764,0.286-1.5,0.787-2.217,1.501c-0.715,0.714-1.336,1.501-1.857,2.358c-0.525,0.858-0.93,1.741-1.217,2.646
		c-0.284,0.907-0.383,1.693-0.284,2.358c0.094,0.479,0.45,0.954,1.071,1.431c0.619,0.478,1.287,0.857,2.002,1.144
		s1.451,0.454,2.217,0.5c0.763,0.049,1.431-0.021,2.003-0.214c0.38-0.952,0.665-2.167,0.856-3.646
		c0.189-1.478,0.236-2.883,0.145-4.22c-0.098-1.334-0.357-2.405-0.787-3.217C368.958,73.532,368.316,73.319,367.457,73.698z"/>
	<path display="inline" fill="#FFFFFF" d="M397.199,75.413c0.764-0.477,1.479-0.952,2.145-1.43c0.666-0.477,1.383-0.858,2.146-1.145
		c1.049-0.572,2.191-0.762,3.434-0.572c1.145,0.383,1.979,0.954,2.502,1.717c0.521,0.764,0.881,1.644,1.072,2.645
		c0.189,1.001,0.262,2.027,0.215,3.075c-0.049,1.05-0.023,2.051,0.07,3.003c0.951-0.952,1.932-2.024,2.932-3.217
		c1.002-1.191,2.074-2.288,3.219-3.289s2.359-1.811,3.646-2.432c1.285-0.618,2.646-0.88,4.074-0.786
		c1.432-0.095,2.479,0.597,3.145,2.073c0.666,1.479,0.717,3.268,0.145,5.362c-0.479,1.336-0.955,2.624-1.432,3.861
		c-0.479,1.239-0.953,2.526-1.43,3.86c-0.668,1.908-1.336,4.076-2.002,6.506c-0.668,2.432-1.287,4.602-1.857,6.508
		c-0.193,0.478-0.287,0.979-0.287,1.501c0,0.524-0.049,1.168-0.143,1.93c0.477-0.094,0.879-0.165,1.215-0.214
		c0.332-0.047,0.596-0.166,0.787-0.357c3.813-3.432,7.672-7.007,11.582-10.725c1.619-1.62,3.24-3.336,4.861-5.148
		c1.619-1.81,3.191-3.575,4.721-5.291c0.57,0.765,0.736,1.383,0.5,1.859c-0.24,0.479-0.5,0.954-0.787,1.43
		c-2.193,3.052-4.361,5.959-6.506,8.724c-2.146,2.766-4.459,5.34-6.938,7.722c-1.051,0.954-2.098,1.908-3.146,2.86
		c-1.051,0.951-2.1,1.858-3.145,2.717c-0.668,0.476-1.357,0.952-2.074,1.43c-0.715,0.476-1.453,0.809-2.217,1.001
		c-1.238,0.477-2.357,0.522-3.359,0.144c-1-0.383-1.787-1.073-2.359-2.074c-0.57-1.001-0.93-2.241-1.07-3.718
		c-0.145-1.478,0.02-3.169,0.5-5.077c0.477-1.62,1.021-3.575,1.645-5.863c0.619-2.288,1.264-4.241,1.932-5.863
		c0.285-1.048,0.619-2.073,1.002-3.075c0.379-1.001,0.428-2.119,0.143-3.359c-1.24,0.191-2.553,1.05-3.934,2.574
		c-1.383,1.525-2.67,3.267-3.859,5.219c-1.193,1.955-2.24,3.91-3.145,5.863c-0.908,1.954-1.502,3.359-1.787,4.218
		c-0.572,2.002-1.287,3.813-2.146,5.434c-0.668,1.238-1.479,2.146-2.432,2.717c-1.24,0.763-2.268,0.596-3.074-0.5
		c-0.813-1.097-0.979-2.596-0.5-4.504c0.857-3.239,1.857-6.528,3.002-9.867c0.666-1.81,1.334-3.574,2.002-5.29
		c0.666-1.717,1.287-3.433,1.859-5.148c0.188-0.666,0.262-1.358,0.215-2.073c-0.051-0.715-0.025-1.405,0.07-2.074
		c-0.857-0.189-1.598-0.021-2.217,0.5c-0.621,0.525-1.168,1.073-1.646,1.646c-2.857,3.242-5.387,7.293-7.578,12.155
		c-0.857,2.002-1.717,4.004-2.572,6.006c-0.857,2.002-1.768,3.957-2.719,5.862c-1.145,2.574-2.383,3.384-3.719,2.432
		c-0.857-0.479-1.5-1.215-1.932-2.216c-0.428-1.001-0.547-2.167-0.355-3.503c0-0.952,0.098-1.667,0.285-2.146
		c2.002-8.388,4.861-16.159,8.58-23.309c1.049-1.811,2.121-3.025,3.219-3.646c1.096-0.619,2.119-0.547,3.074,0.214
		c0.477,0.382,0.904,0.858,1.287,1.431C396.435,74.269,396.816,74.842,397.199,75.413z"/>
	<path display="inline" fill="#FFFFFF" d="M454.257,105.729c0.57,0,1.096,0.048,1.572,0.144c0.477,0.094,0.904,0,1.285-0.286
		c1.334-1.144,2.74-2.478,4.221-4.004c1.477-1.524,2.932-3.146,4.359-4.862c1.432-1.716,2.789-3.383,4.076-5.005
		c1.287-1.62,2.453-3.05,3.504-4.29c0.285-0.38,0.594-0.689,0.93-0.93c0.334-0.237,0.645-0.451,0.93-0.645
		c0.477,0.858,0.645,1.599,0.5,2.218c-0.143,0.62-0.355,1.168-0.645,1.645c-1.143,1.716-2.406,3.599-3.789,5.648
		c-1.383,2.051-2.838,4.074-4.359,6.076c-1.525,2.002-3.125,3.837-4.791,5.507c-1.67,1.667-3.268,2.931-4.791,3.79
		c-3.434,1.81-6.104,0.476-8.008-4.005c-0.383-0.668-0.621-1.336-0.717-2.002l-0.715-1.001l-7.293,1.287
		c-2.857,0-4.955-0.809-6.291-2.431c-1.334-1.62-2.002-3.646-2.002-6.077s0.598-5.077,1.787-7.937
		c1.191-2.86,2.813-5.528,4.861-8.009c2.049-2.478,4.455-4.598,7.223-6.362c2.764-1.764,5.768-2.789,9.008-3.075
		c1.432,0,2.861,0.621,4.291,1.858c1.334,1.051,2.191,2.671,2.574,4.862c0.379,2.194,0.188,4.29-0.572,6.292
		c-0.383,0.954-0.906,1.431-1.572,1.431c-0.191,0.096-0.43-0.048-0.717-0.43c-0.283-0.38-0.523-0.762-0.715-1.144
		c-0.191-0.19-0.285-0.5-0.285-0.931c0-0.429-0.049-0.833-0.143-1.215c-0.098-0.857-0.357-1.477-0.787-1.858
		c-0.43-0.38-0.883-0.572-1.359-0.572c-0.668,0.096-1.336,0.192-2.002,0.286c-0.668,0.096-1.285,0.335-1.857,0.715
		c-4.672,2.766-8.344,7.246-11.01,13.442c-0.191,0.478-0.357,1.024-0.502,1.645c-0.143,0.621-0.311,1.215-0.5,1.787
		c-0.191,0.668-0.145,1.312,0.145,1.931c0.285,0.621,0.617,0.835,1,0.645c1.811-0.666,3.551-1.431,5.221-2.288
		c1.666-0.858,3.168-2.382,4.504-4.576c1.049-1.716,2.191-3.097,3.434-4.146c0.762-0.763,1.596-1.191,2.502-1.287
		c0.904-0.095,1.787,0.096,2.646,0.571c0.477,0.286,0.809,0.858,1,1.717c0.191,0.857,0.096,1.572-0.285,2.145
		c-0.479,0.764-0.93,1.479-1.357,2.146c-0.43,0.668-0.883,1.383-1.357,2.145c-0.764,1.336-1.455,2.695-2.072,4.076
		C454.708,101.75,454.351,103.537,454.257,105.729z"/>
	<path display="inline" fill="#FFFFFF" d="M471.701,101.155c-0.285-3.24-0.43-6.34-0.43-9.295
		c-0.094-5.528,0.787-10.153,2.646-13.871c1.857-3.719,4.455-6.101,7.793-7.15c0.951-0.38,1.906-0.521,2.859-0.429
		c0.951,0.096,1.906,0.524,2.859,1.287c0.857,0.764,1.477,1.692,1.859,2.789c0.379,1.097,0.477,2.456,0.283,4.074
		c-0.189,2.288-0.764,4.243-1.715,5.863c-0.955,1.622-2.242,3.195-3.859,4.719c0.477-1.62,0.902-2.954,1.285-4.004
		c0.381-1.048,0.666-2.096,0.857-3.146c0.094-0.477,0.117-1.048,0.07-1.716c-0.049-0.666-0.166-1.238-0.355-1.717
		c-0.383-0.762-0.813-1.095-1.287-1.001c-0.479,0.097-0.955,0.383-1.432,0.858c-0.764,0.764-1.336,1.622-1.715,2.574
		c-1.908,4.768-2.67,10.202-2.289,16.302c5.242-1.43,9.795-3.883,13.656-7.364c3.861-3.479,7.314-7.314,10.367-11.512
		c0.285,0.668,0.332,1.169,0.145,1.501c-0.191,0.335-0.383,0.693-0.572,1.073c-1.145,2.859-2.623,5.412-4.434,7.649
		c-1.813,2.241-3.789,4.22-5.936,5.936S488,97.793,485.71,99.08c-2.287,1.287-4.527,2.358-6.723,3.218
		c-0.096,1.336-0.143,2.623-0.143,3.861c0,1.237-0.096,2.524-0.285,3.86c-0.572,6.482-2.527,11.534-5.863,15.158
		c-0.951,0.952-1.93,1.646-2.932,2.073c-1,0.429-2.074,0.452-3.219,0.072c-1.619-0.479-2.836-1.646-3.645-3.503
		c-0.811-1.859-1.072-4.029-0.787-6.508c0.285-2.193,0.766-4.195,1.432-6.006c0.668-1.812,1.621-3.385,2.857-4.719
		c0.766-0.954,1.574-1.834,2.434-2.646C469.699,103.133,470.652,102.203,471.701,101.155z M466.125,120.458
		c0.857-1.145,1.572-2.073,2.146-2.789c0.57-0.715,1.023-1.407,1.357-2.073c0.334-0.668,0.621-1.357,0.857-2.074
		c0.238-0.715,0.5-1.597,0.785-2.646c0.096-0.479,0.121-1.025,0.07-1.646c-0.047-0.62-0.07-1.265-0.07-1.93
		c-2.764,2.288-4.504,4.337-5.221,6.149C465.337,115.262,465.361,117.598,466.125,120.458z"/>
</g>
</svg>
